<svg version="1.1" viewBox="0.0 0.0 961.0656167979002 533.3333333333334" fill="none" stroke="none" stroke-linecap="square" stroke-miterlimit="10" xmlns:xlink="http://www.w3.org/1999/xlink" xmlns="http://www.w3.org/2000/svg"><clipPath id="p.0"><path d="m0 0l961.0656 0l0 533.3333l-961.0656 0l0 -533.3333z" clip-rule="nonzero"/></clipPath><g clip-path="url(#p.0)"><path fill="#000000" fill-opacity="0.0" d="m0 0l961.0656 0l0 533.3333l-961.0656 0z" fill-rule="evenodd"/><path fill="#bee3d9" d="m25.640419 276.88452l0 0c0 -23.630829 38.750282 -42.787415 86.551186 -42.787415l0 0c47.800888 0 86.55118 19.156586 86.55118 42.787415l0 0c0 23.630829 -38.75029 42.787384 -86.55118 42.787384l0 0c-47.800903 0 -86.551186 -19.156555 -86.551186 -42.787384z" fill-rule="evenodd"/><path stroke="#7896ad" stroke-width="1.0" stroke-linejoin="round" stroke-linecap="butt" d="m25.640419 276.88452l0 0c0 -23.630829 38.750282 -42.787415 86.551186 -42.787415l0 0c47.800888 0 86.55118 19.156586 86.55118 42.787415l0 0c0 23.630829 -38.75029 42.787384 -86.55118 42.787384l0 0c-47.800903 0 -86.551186 -19.156555 -86.551186 -42.787384z" fill-rule="evenodd"/><path fill="#000000" d="m68.88782 281.6845l-3.140625 -4.125l0 4.125l-2.2812538 0l0 -9.359375l2.2812538 0l0 4.109375l3.109375 -4.109375l2.6875 0l-3.625 4.59375l3.75 4.765625l-2.78125 0zm5.008423 -8.203125q-0.59375 0 -0.984375 -0.359375q-0.375 -0.359375 -0.375 -0.875q0 -0.53125 0.375 -0.875q0.390625 -0.359375 0.984375 -0.359375q0.59375 0 0.96875 0.359375q0.375 0.34375 0.375 0.875q0 0.515625 -0.375 0.875q-0.375 0.359375 -0.96875 0.359375zm1.140625 0.765625l0 7.4375l-2.28125 0l0 -7.4375l2.28125 0zm6.181778 -0.078125q1.296875 0 2.078125 0.84375q0.78125 0.84375 0.78125 2.328125l0 4.34375l-2.265625 0l0 -4.03125q0 -0.75 -0.390625 -1.15625q-0.375 -0.421875 -1.03125 -0.421875q-0.65625 0 -1.046875 0.421875q-0.375 0.40625 -0.375 1.15625l0 4.03125l-2.28125 0l0 -7.4375l2.28125 0l0 0.984375q0.34375 -0.484375 0.921875 -0.765625q0.59375 -0.296875 1.328125 -0.296875zm11.467499 3.671875q0 0.328125 -0.046875 0.671875l-5.15625 0q0.046875 0.6875 0.4375 1.0625q0.40625 0.359375 0.96875 0.359375q0.859375 0 1.1875 -0.71875l2.421875 0q-0.171875 0.734375 -0.671875 1.328125q-0.484375 0.578125 -1.21875 0.921875q-0.734375 0.328125 -1.640625 0.328125q-1.09375 0 -1.953125 -0.46875q-0.84375 -0.46875 -1.328125 -1.328125q-0.46875 -0.875 -0.46875 -2.03125q0 -1.15625 0.46875 -2.015625q0.46875 -0.875 1.328125 -1.34375q0.859375 -0.46875 1.953125 -0.46875q1.09375 0 1.921875 0.453125q0.84375 0.453125 1.3125 1.296875q0.484375 0.84375 0.484375 1.953125zm-2.34375 -0.59375q0 -0.59375 -0.40625 -0.9375q-0.390625 -0.34375 -0.984375 -0.34375q-0.578125 0 -0.96875 0.34375q-0.390625 0.328125 -0.484375 0.9375l2.84375 0zm6.5694733 4.546875q-0.984375 0 -1.75 -0.328125q-0.75 -0.34375 -1.1875 -0.921875q-0.4375 -0.578125 -0.5 -1.296875l2.25 0q0.046875 0.390625 0.359375 0.625q0.328125 0.234375 0.796875 0.234375q0.421875 0 0.65625 -0.15625q0.234375 -0.171875 0.234375 -0.4375q0 -0.328125 -0.34375 -0.46875q-0.328125 -0.15625 -1.0625 -0.34375q-0.8125 -0.1875 -1.34375 -0.390625q-0.53125 -0.203125 -0.921875 -0.65625q-0.375 -0.453125 -0.375 -1.203125q0 -0.640625 0.34375 -1.171875q0.359375 -0.53125 1.046875 -0.828125q0.6875 -0.3125 1.625 -0.3125q1.40625 0 2.203125 0.703125q0.8125 0.6875 0.9375 1.828125l-2.109375 0q-0.046875 -0.375 -0.34375 -0.59375q-0.28125 -0.234375 -0.75 -0.234375q-0.40625 0 -0.625 0.15625q-0.203125 0.140625 -0.203125 0.40625q0 0.328125 0.34375 0.484375q0.34375 0.15625 1.0625 0.3125q0.828125 0.21875 1.34375 0.421875q0.515625 0.203125 0.90625 0.671875q0.390625 0.453125 0.40625 1.234375q0 0.65625 -0.375 1.171875q-0.359375 0.5 -1.046875 0.796875q-0.671875 0.296875 -1.578125 0.296875zm5.5464478 -8.3125q-0.59375 0 -0.984375 -0.359375q-0.375 -0.359375 -0.375 -0.875q0 -0.53125 0.375 -0.875q0.390625 -0.359375 0.984375 -0.359375q0.59375 0 0.96875 0.359375q0.375 0.34375 0.375 0.875q0 0.515625 -0.375 0.875q-0.375 0.359375 -0.96875 0.359375zm1.140625 0.765625l0 7.4375l-2.28125 0l0 -7.4375l2.28125 0zm4.681778 7.546875q-0.984375 0 -1.75 -0.328125q-0.75 -0.34375 -1.1875 -0.921875q-0.4375 -0.578125 -0.5 -1.296875l2.25 0q0.046875 0.390625 0.359375 0.625q0.328125 0.234375 0.796875 0.234375q0.421875 0 0.65625 -0.15625q0.234375 -0.171875 0.234375 -0.4375q0 -0.328125 -0.34375 -0.46875q-0.328125 -0.15625 -1.0625 -0.34375q-0.8125 -0.1875 -1.34375 -0.390625q-0.53125 -0.203125 -0.921875 -0.65625q-0.375 -0.453125 -0.375 -1.203125q0 -0.640625 0.34375 -1.171875q0.359375 -0.53125 1.046875 -0.828125q0.6875 -0.3125 1.625 -0.3125q1.40625 0 2.203125 0.703125q0.8125 0.6875 0.9375 1.828125l-2.109375 0q-0.046875 -0.375 -0.34375 -0.59375q-0.28125 -0.234375 -0.75 -0.234375q-0.40625 0 -0.625 0.15625q-0.203125 0.140625 -0.203125 0.40625q0 0.328125 0.34375 0.484375q0.34375 0.15625 1.0625 0.3125q0.828125 0.21875 1.34375 0.421875q0.515625 0.203125 0.90625 0.671875q0.390625 0.453125 0.40625 1.234375q0 0.65625 -0.375 1.171875q-0.359375 0.5 -1.046875 0.796875q-0.671875 0.296875 -1.578125 0.296875zm11.371994 -2.046875l0 1.9375l-1.15625 0q-1.234375 0 -1.9375 -0.609375q-0.6875 -0.609375 -0.6875 -1.96875l0 -2.96875l-0.90625 0l0 -1.890625l0.90625 0l0 -1.8125l2.28125 0l0 1.8125l1.484375 0l0 1.890625l-1.484375 0l0 2.984375q0 0.34375 0.15625 0.484375q0.15625 0.140625 0.53125 0.140625l0.8125 0zm3.5518188 -4.265625q0.390625 -0.609375 0.984375 -0.953125q0.609375 -0.359375 1.34375 -0.359375l0 2.40625l-0.625 0q-0.859375 0 -1.28125 0.375q-0.421875 0.359375 -0.421875 1.28125l0 3.453125l-2.28125 0l0 -7.4375l2.28125 0l0 1.234375zm4.563797 -2.0q-0.59375 0 -0.984375 -0.359375q-0.375 -0.359375 -0.375 -0.875q0 -0.53125 0.375 -0.875q0.390625 -0.359375 0.984375 -0.359375q0.59375 0 0.96875 0.359375q0.375 0.34375 0.375 0.875q0 0.515625 -0.375 0.875q-0.375 0.359375 -0.96875 0.359375zm1.140625 0.765625l0 7.4375l-2.28125 0l0 -7.4375l2.28125 0zm4.478653 -0.109375q0.78125 0 1.375 0.328125q0.59375 0.3125 0.90625 0.828125l0 -1.046875l2.28125 0l0 7.421875q0 1.03125 -0.40625 1.859375q-0.40625 0.828125 -1.234375 1.328125q-0.828125 0.5 -2.078125 0.5q-1.640625 0 -2.671875 -0.78125q-1.03125 -0.78125 -1.171875 -2.125l2.25 0q0.109375 0.4375 0.5 0.671875q0.40625 0.25 0.984375 0.25q0.71875 0 1.125 -0.40625q0.421875 -0.40625 0.421875 -1.296875l0 -1.046875q-0.328125 0.515625 -0.921875 0.84375q-0.578125 0.328125 -1.359375 0.328125q-0.921875 0 -1.671875 -0.46875q-0.75 -0.484375 -1.1875 -1.34375q-0.421875 -0.875 -0.421875 -2.03125q0 -1.140625 0.421875 -2.0q0.4375 -0.875 1.1875 -1.34375q0.75 -0.46875 1.671875 -0.46875zm2.28125 3.828125q0 -0.859375 -0.46875 -1.34375q-0.46875 -0.5 -1.15625 -0.5q-0.671875 0 -1.15625 0.5q-0.46875 0.484375 -0.46875 1.328125q0 0.859375 0.46875 1.359375q0.484375 0.5 1.15625 0.5q0.6875 0 1.15625 -0.484375q0.46875 -0.5 0.46875 -1.359375zm6.768509 -3.828125q0.78125 0 1.375 0.328125q0.59375 0.3125 0.90625 0.828125l0 -1.046875l2.28125 0l0 7.421875q0 1.03125 -0.40625 1.859375q-0.40625 0.828125 -1.234375 1.328125q-0.828125 0.5 -2.078125 0.5q-1.640625 0 -2.671875 -0.78125q-1.03125 -0.78125 -1.171875 -2.125l2.25 0q0.109375 0.4375 0.5 0.671875q0.40625 0.25 0.984375 0.25q0.71875 0 1.125 -0.40625q0.421875 -0.40625 0.421875 -1.296875l0 -1.046875q-0.328125 0.515625 -0.921875 0.84375q-0.578125 0.328125 -1.359375 0.328125q-0.921875 0 -1.671875 -0.46875q-0.75 -0.484375 -1.1875 -1.34375q-0.421875 -0.875 -0.421875 -2.03125q0 -1.140625 0.421875 -2.0q0.4375 -0.875 1.1875 -1.34375q0.75 -0.46875 1.671875 -0.46875zm2.28125 3.828125q0 -0.859375 -0.46875 -1.34375q-0.46875 -0.5 -1.15625 -0.5q-0.671875 0 -1.15625 0.5q-0.46875 0.484375 -0.46875 1.328125q0 0.859375 0.46875 1.359375q0.484375 0.5 1.15625 0.5q0.6875 0 1.15625 -0.484375q0.46875 -0.5 0.46875 -1.359375zm10.956009 -0.125q0 0.328125 -0.046875 0.671875l-5.15625 0q0.046875 0.6875 0.4375 1.0625q0.40625 0.359375 0.96875 0.359375q0.859375 0 1.1875 -0.71875l2.421875 0q-0.171875 0.734375 -0.671875 1.328125q-0.484375 0.578125 -1.21875 0.921875q-0.734375 0.328125 -1.640625 0.328125q-1.09375 0 -1.953125 -0.46875q-0.84375 -0.46875 -1.328125 -1.328125q-0.46875 -0.875 -0.46875 -2.03125q0 -1.15625 0.46875 -2.015625q0.46875 -0.875 1.328125 -1.34375q0.859375 -0.46875 1.953125 -0.46875q1.09375 0 1.921875 0.453125q0.84375 0.453125 1.3125 1.296875q0.484375 0.84375 0.484375 1.953125zm-2.34375 -0.59375q0 -0.59375 -0.40625 -0.9375q-0.390625 -0.34375 -0.984375 -0.34375q-0.578125 0 -0.96875 0.34375q-0.390625 0.328125 -0.484375 0.9375l2.84375 0zm5.8194733 -1.765625q0.390625 -0.609375 0.984375 -0.953125q0.609375 -0.359375 1.34375 -0.359375l0 2.40625l-0.625 0q-0.859375 0 -1.28125 0.375q-0.421875 0.359375 -0.421875 1.28125l0 3.453125l-2.28125 0l0 -7.4375l2.28125 0l0 1.234375z" fill-rule="nonzero"/><path fill="#bee3d9" d="m289.6404 388.88452l0 0c0 -23.630829 38.750305 -42.787415 86.55118 -42.787415l0 0c47.800903 0 86.55118 19.156586 86.55118 42.787415l0 0c0 23.630829 -38.750275 42.787384 -86.55118 42.787384l0 0c-47.800873 0 -86.55118 -19.156555 -86.55118 -42.787384z" fill-rule="evenodd"/><path stroke="#7896ad" stroke-width="1.0" stroke-linejoin="round" stroke-linecap="butt" d="m289.6404 388.88452l0 0c0 -23.630829 38.750305 -42.787415 86.55118 -42.787415l0 0c47.800903 0 86.55118 19.156586 86.55118 42.787415l0 0c0 23.630829 -38.750275 42.787384 -86.55118 42.787384l0 0c-47.800873 0 -86.55118 -19.156555 -86.55118 -42.787384z" fill-rule="evenodd"/><path fill="#000000" d="m347.675 376.32513l0 1.828125l-2.484375 0l0 7.53125l-2.28125 0l0 -7.53125l-2.484375 0l0 -1.828125l7.25 0zm3.423767 3.15625q0.390625 -0.609375 0.984375 -0.953125q0.609375 -0.359375 1.34375 -0.359375l0 2.40625l-0.625 0q-0.859375 0 -1.28125 0.375q-0.421875 0.359375 -0.421875 1.28125l0 3.453125l-2.28125 0l0 -7.4375l2.28125 0l0 1.234375zm2.9700623 2.46875q0 -1.140625 0.421875 -2.0q0.4375 -0.875 1.1875 -1.34375q0.75 -0.46875 1.671875 -0.46875q0.78125 0 1.375 0.328125q0.59375 0.3125 0.90625 0.828125l0 -1.046875l2.28125 0l0 7.4375l-2.28125 0l0 -1.046875q-0.328125 0.515625 -0.921875 0.84375q-0.59375 0.3125 -1.375 0.3125q-0.90625 0 -1.65625 -0.46875q-0.75 -0.484375 -1.1875 -1.34375q-0.421875 -0.875 -0.421875 -2.03125zm5.5625 0.015625q0 -0.859375 -0.46875 -1.34375q-0.46875 -0.5 -1.15625 -0.5q-0.671875 0 -1.15625 0.5q-0.46875 0.484375 -0.46875 1.328125q0 0.859375 0.46875 1.359375q0.484375 0.5 1.15625 0.5q0.6875 0 1.15625 -0.484375q0.46875 -0.5 0.46875 -1.359375zm8.471619 -3.796875q1.296875 0 2.078125 0.84375q0.78125 0.84375 0.78125 2.328125l0 4.34375l-2.265625 0l0 -4.03125q0 -0.75 -0.390625 -1.15625q-0.375 -0.421875 -1.03125 -0.421875q-0.65625 0 -1.046875 0.421875q-0.375 0.40625 -0.375 1.15625l0 4.03125l-2.28125 0l0 -7.4375l2.28125 0l0 0.984375q0.34375 -0.484375 0.921875 -0.765625q0.59375 -0.296875 1.328125 -0.296875zm7.483124 7.625q-0.984375 0 -1.75 -0.328125q-0.75 -0.34375 -1.1875 -0.921875q-0.4375 -0.578125 -0.5 -1.296875l2.25 0q0.046875 0.390625 0.359375 0.625q0.328125 0.234375 0.796875 0.234375q0.421875 0 0.65625 -0.15625q0.234375 -0.171875 0.234375 -0.4375q0 -0.328125 -0.34375 -0.46875q-0.328125 -0.15625 -1.0625 -0.34375q-0.8125 -0.1875 -1.34375 -0.390625q-0.53125 -0.203125 -0.921875 -0.65625q-0.375 -0.453125 -0.375 -1.203125q0 -0.640625 0.34375 -1.171875q0.359375 -0.53125 1.046875 -0.828125q0.6875 -0.3125 1.625 -0.3125q1.40625 0 2.203125 0.703125q0.8125 0.6875 0.9375 1.828125l-2.109375 0q-0.046875 -0.375 -0.34375 -0.59375q-0.28125 -0.234375 -0.75 -0.234375q-0.40625 0 -0.625 0.15625q-0.203125 0.140625 -0.203125 0.40625q0 0.328125 0.34375 0.484375q0.34375 0.15625 1.0625 0.3125q0.828125 0.21875 1.34375 0.421875q0.515625 0.203125 0.90625 0.671875q0.390625 0.453125 0.40625 1.234375q0 0.65625 -0.375 1.171875q-0.359375 0.5 -1.046875 0.796875q-0.671875 0.296875 -1.578125 0.296875zm8.140198 -5.65625l-1.234375 0l0 5.546875l-2.28125 0l0 -5.546875l-0.8125 0l0 -1.890625l0.8125 0l0 -0.21875q0 -1.359375 0.78125 -2.078125q0.796875 -0.71875 2.3125 -0.71875q0.25 0 0.375 0.015625l0 1.9375q-0.65625 -0.046875 -0.921875 0.1875q-0.265625 0.21875 -0.265625 0.8125l0 0.0625l1.234375 0l0 1.890625zm4.454376 5.65625q-1.09375 0 -1.96875 -0.46875q-0.875 -0.46875 -1.375 -1.328125q-0.5 -0.875 -0.5 -2.03125q0 -1.140625 0.5 -2.015625q0.515625 -0.875 1.390625 -1.34375q0.875 -0.46875 1.96875 -0.46875q1.09375 0 1.96875 0.46875q0.890625 0.46875 1.390625 1.34375q0.515625 0.875 0.515625 2.015625q0 1.140625 -0.515625 2.015625q-0.515625 0.875 -1.40625 1.34375q-0.890625 0.46875 -1.96875 0.46875zm0 -1.96875q0.640625 0 1.09375 -0.484375q0.46875 -0.484375 0.46875 -1.375q0 -0.890625 -0.453125 -1.375q-0.4375 -0.484375 -1.09375 -0.484375q-0.65625 0 -1.109375 0.484375q-0.4375 0.46875 -0.4375 1.375q0 0.890625 0.4375 1.375q0.4375 0.484375 1.09375 0.484375zm7.380615 -4.34375q0.390625 -0.609375 0.984375 -0.953125q0.609375 -0.359375 1.34375 -0.359375l0 2.40625l-0.625 0q-0.859375 0 -1.28125 0.375q-0.421875 0.359375 -0.421875 1.28125l0 3.453125l-2.28125 0l0 -7.4375l2.28125 0l0 1.234375zm12.907532 -1.3125q1.390625 0 2.203125 0.84375q0.828125 0.828125 0.828125 2.328125l0 4.34375l-2.265625 0l0 -4.03125q0 -0.734375 -0.390625 -1.125q-0.375 -0.390625 -1.03125 -0.390625q-0.671875 0 -1.0625 0.390625q-0.375 0.390625 -0.375 1.125l0 4.03125l-2.265625 0l0 -4.03125q0 -0.734375 -0.375 -1.125q-0.375 -0.390625 -1.046875 -0.390625q-0.671875 0 -1.046875 0.390625q-0.375 0.390625 -0.375 1.125l0 4.03125l-2.28125 0l0 -7.4375l2.28125 0l0 0.9375q0.34375 -0.46875 0.90625 -0.734375q0.5625 -0.28125 1.265625 -0.28125q0.84375 0 1.5 0.359375q0.65625 0.359375 1.03125 1.03125q0.390625 -0.625 1.046875 -1.0q0.671875 -0.390625 1.453125 -0.390625z" fill-rule="nonzero"/><path fill="#000000" d="m364.67963 392.32513l0 6.375q0 1.484375 -0.828125 2.28125q-0.828125 0.796875 -2.25 0.796875q-1.484375 0 -2.375 -0.84375q-0.890625 -0.84375 -0.890625 -2.375l2.265625 0q0 0.578125 0.234375 0.875q0.25 0.296875 0.703125 0.296875q0.40625 0 0.625 -0.265625q0.234375 -0.265625 0.234375 -0.765625l0 -6.375l2.28125 0zm5.2348633 9.453125q-1.03125 0 -1.84375 -0.328125q-0.8125 -0.34375 -1.296875 -0.984375q-0.484375 -0.65625 -0.515625 -1.578125l2.421875 0q0.046875 0.515625 0.359375 0.796875q0.3125 0.265625 0.796875 0.265625q0.515625 0 0.796875 -0.234375q0.296875 -0.234375 0.296875 -0.640625q0 -0.34375 -0.234375 -0.5625q-0.234375 -0.234375 -0.578125 -0.375q-0.328125 -0.15625 -0.953125 -0.34375q-0.90625 -0.28125 -1.484375 -0.5625q-0.578125 -0.28125 -0.984375 -0.828125q-0.40625 -0.546875 -0.40625 -1.421875q0 -1.3125 0.9375 -2.046875q0.953125 -0.734375 2.46875 -0.734375q1.546875 0 2.484375 0.734375q0.953125 0.734375 1.015625 2.0625l-2.46875 0q-0.015625 -0.453125 -0.328125 -0.703125q-0.3125 -0.265625 -0.78125 -0.265625q-0.421875 0 -0.671875 0.21875q-0.25 0.21875 -0.25 0.625q0 0.453125 0.421875 0.71875q0.4375 0.25 1.34375 0.53125q0.90625 0.3125 1.46875 0.59375q0.5625 0.28125 0.96875 0.8125q0.421875 0.53125 0.421875 1.375q0 0.796875 -0.40625 1.453125q-0.40625 0.640625 -1.1875 1.03125q-0.765625 0.390625 -1.8125 0.390625zm9.228027 0q-1.3125 0 -2.421875 -0.609375q-1.09375 -0.625 -1.75 -1.71875q-0.640625 -1.09375 -0.640625 -2.46875q0 -1.375 0.640625 -2.46875q0.65625 -1.09375 1.75 -1.703125q1.109375 -0.609375 2.421875 -0.609375q1.328125 0 2.421875 0.609375q1.09375 0.609375 1.71875 1.703125q0.640625 1.09375 0.640625 2.46875q0 1.375 -0.640625 2.46875q-0.640625 1.09375 -1.734375 1.71875q-1.078125 0.609375 -2.40625 0.609375zm0 -2.078125q1.125 0 1.796875 -0.75q0.671875 -0.75 0.671875 -1.96875q0 -1.234375 -0.671875 -1.96875q-0.671875 -0.75 -1.796875 -0.75q-1.125 0 -1.8125 0.734375q-0.671875 0.734375 -0.671875 1.984375q0 1.234375 0.671875 1.984375q0.6875 0.734375 1.8125 0.734375zm14.428986 1.984375l-2.28125 0l-3.8125 -5.765625l0 5.765625l-2.28125 0l0 -9.359375l2.28125 0l3.8125 5.796875l0 -5.796875l2.28125 0l0 9.359375z" fill-rule="nonzero"/><path fill="#bee3d9" d="m313.6404 172.88452l0 0c0 -23.630829 38.750305 -42.787415 86.55118 -42.787415l0 0c47.800903 0 86.55118 19.156586 86.55118 42.787415l0 0c0 23.630829 -38.750275 42.7874 -86.55118 42.7874l0 0c-47.800873 0 -86.55118 -19.15657 -86.55118 -42.7874z" fill-rule="evenodd"/><path stroke="#7896ad" stroke-width="1.0" stroke-linejoin="round" stroke-linecap="butt" d="m313.6404 172.88452l0 0c0 -23.630829 38.750305 -42.787415 86.55118 -42.787415l0 0c47.800903 0 86.55118 19.156586 86.55118 42.787415l0 0c0 23.630829 -38.750275 42.7874 -86.55118 42.7874l0 0c-47.800873 0 -86.55118 -19.15657 -86.55118 -42.7874z" fill-rule="evenodd"/><path fill="#000000" d="m369.07123 179.27826l-1.1875 -1.609375q-0.546875 0.109375 -1.046875 0.109375q-1.3125 0 -2.421875 -0.609375q-1.09375 -0.625 -1.75 -1.71875q-0.640625 -1.09375 -0.640625 -2.46875q0 -1.375 0.640625 -2.46875q0.65625 -1.09375 1.75 -1.703125q1.109375 -0.609375 2.421875 -0.609375q1.328125 0 2.421875 0.609375q1.09375 0.609375 1.71875 1.703125q0.640625 1.09375 0.640625 2.46875q0 1.203125 -0.484375 2.203125q-0.484375 0.984375 -1.34375 1.640625l2.046875 2.453125l-2.765625 0zm-4.71875 -6.296875q0 1.234375 0.671875 1.984375q0.6875 0.734375 1.8125 0.734375q1.125 0 1.796875 -0.75q0.671875 -0.75 0.671875 -1.96875q0 -1.234375 -0.671875 -1.96875q-0.671875 -0.75 -1.796875 -0.75q-1.125 0 -1.8125 0.734375q-0.671875 0.734375 -0.671875 1.984375zm15.908752 -2.734375l0 7.4375l-2.28125 0l0 -1.015625q-0.34375 0.5 -0.9375 0.796875q-0.59375 0.296875 -1.3125 0.296875q-0.859375 0 -1.515625 -0.375q-0.640625 -0.390625 -1.0 -1.109375q-0.359375 -0.71875 -0.359375 -1.6875l0 -4.34375l2.265625 0l0 4.03125q0 0.75 0.375 1.171875q0.390625 0.40625 1.046875 0.40625q0.671875 0 1.046875 -0.40625q0.390625 -0.421875 0.390625 -1.171875l0 -4.03125l2.28125 0zm8.654999 3.59375q0 0.328125 -0.046875 0.671875l-5.15625 0q0.046875 0.6875 0.4375 1.0625q0.40625 0.359375 0.96875 0.359375q0.859375 0 1.1875 -0.71875l2.421875 0q-0.171875 0.734375 -0.671875 1.328125q-0.484375 0.578125 -1.21875 0.921875q-0.734375 0.328125 -1.640625 0.328125q-1.09375 0 -1.953125 -0.46875q-0.84375 -0.46875 -1.328125 -1.328125q-0.46875 -0.875 -0.46875 -2.03125q0 -1.15625 0.46875 -2.015625q0.46875 -0.875 1.328125 -1.34375q0.859375 -0.46875 1.953125 -0.46875q1.09375 0 1.921875 0.453125q0.84375 0.453125 1.3125 1.296875q0.484375 0.84375 0.484375 1.953125zm-2.34375 -0.59375q0 -0.59375 -0.40625 -0.9375q-0.390625 -0.34375 -0.984375 -0.34375q-0.578125 0 -0.96875 0.34375q-0.390625 0.328125 -0.484375 0.9375l2.84375 0zm5.8194885 -1.765625q0.390625 -0.609375 0.984375 -0.953125q0.609375 -0.359375 1.34375 -0.359375l0 2.40625l-0.625 0q-0.859375 0 -1.28125 0.375q-0.421875 0.359375 -0.421875 1.28125l0 3.453125l-2.28125 0l0 -7.4375l2.28125 0l0 1.234375zm11.016907 -1.234375l-4.65625 10.96875l-2.453125 0l1.703125 -3.78125l-3.03125 -7.1875l2.546875 0l1.71875 4.65625l1.703125 -4.65625l2.46875 0zm3.2020264 3.703125q0 -1.140625 0.421875 -2.0q0.4375 -0.875 1.1875 -1.34375q0.75 -0.46875 1.671875 -0.46875q0.734375 0 1.328125 0.3125q0.609375 0.296875 0.953125 0.828125l0 -3.453125l2.28125 0l0 9.859375l-2.28125 0l0 -1.0625q-0.3125 0.53125 -0.90625 0.859375q-0.59375 0.3125 -1.375 0.3125q-0.921875 0 -1.671875 -0.46875q-0.75 -0.484375 -1.1875 -1.34375q-0.421875 -0.875 -0.421875 -2.03125zm5.5625 0.015625q0 -0.859375 -0.46875 -1.34375q-0.46875 -0.5 -1.15625 -0.5q-0.671875 0 -1.15625 0.5q-0.46875 0.484375 -0.46875 1.328125q0 0.859375 0.46875 1.359375q0.484375 0.5 1.15625 0.5q0.6875 0 1.15625 -0.484375q0.46875 -0.5 0.46875 -1.359375zm3.4872437 -0.015625q0 -1.140625 0.421875 -2.0q0.4375 -0.875 1.1875 -1.34375q0.75 -0.46875 1.671875 -0.46875q0.78125 0 1.375 0.328125q0.59375 0.3125 0.90625 0.828125l0 -1.046875l2.28125 0l0 7.4375l-2.28125 0l0 -1.046875q-0.328125 0.515625 -0.921875 0.84375q-0.59375 0.3125 -1.375 0.3125q-0.90625 0 -1.65625 -0.46875q-0.75 -0.484375 -1.1875 -1.34375q-0.421875 -0.875 -0.421875 -2.03125zm5.5625 0.015625q0 -0.859375 -0.46875 -1.34375q-0.46875 -0.5 -1.15625 -0.5q-0.671875 0 -1.15625 0.5q-0.46875 0.484375 -0.46875 1.328125q0 0.859375 0.46875 1.359375q0.484375 0.5 1.15625 0.5q0.6875 0 1.15625 -0.484375q0.46875 -0.5 0.46875 -1.359375zm8.081024 1.78125l0 1.9375l-1.15625 0q-1.234375 0 -1.9375 -0.609375q-0.6875 -0.609375 -0.6875 -1.96875l0 -2.96875l-0.90625 0l0 -1.890625l0.90625 0l0 -1.8125l2.28125 0l0 1.8125l1.484375 0l0 1.890625l-1.484375 0l0 2.984375q0 0.34375 0.15625 0.484375q0.15625 0.140625 0.53125 0.140625l0.8125 0zm0.81744385 -1.796875q0 -1.140625 0.421875 -2.0q0.4375 -0.875 1.1875 -1.34375q0.75 -0.46875 1.671875 -0.46875q0.78125 0 1.375 0.328125q0.59375 0.3125 0.90625 0.828125l0 -1.046875l2.28125 0l0 7.4375l-2.28125 0l0 -1.046875q-0.328125 0.515625 -0.921875 0.84375q-0.59375 0.3125 -1.375 0.3125q-0.90625 0 -1.65625 -0.46875q-0.75 -0.484375 -1.1875 -1.34375q-0.421875 -0.875 -0.421875 -2.03125zm5.5625 0.015625q0 -0.859375 -0.46875 -1.34375q-0.46875 -0.5 -1.15625 -0.5q-0.671875 0 -1.15625 0.5q-0.46875 0.484375 -0.46875 1.328125q0 0.859375 0.46875 1.359375q0.484375 0.5 1.15625 0.5q0.6875 0 1.15625 -0.484375q0.46875 -0.5 0.46875 -1.359375z" fill-rule="nonzero"/><path fill="#bee3d9" d="m769.64044 228.88452l0 0c0 -23.630829 38.750244 -42.787415 86.55115 -42.787415l0 0c47.800903 0 86.55121 19.156586 86.55121 42.787415l0 0c0 23.630829 -38.750305 42.787384 -86.55121 42.787384l0 0c-47.800903 0 -86.55115 -19.156555 -86.55115 -42.787384z" fill-rule="evenodd"/><path stroke="#7896ad" stroke-width="1.0" stroke-linejoin="round" stroke-linecap="butt" d="m769.64044 228.88452l0 0c0 -23.630829 38.750244 -42.787415 86.55115 -42.787415l0 0c47.800903 0 86.55121 19.156586 86.55121 42.787415l0 0c0 23.630829 -38.750305 42.787384 -86.55121 42.787384l0 0c-47.800903 0 -86.55115 -19.156555 -86.55115 -42.787384z" fill-rule="evenodd"/><path fill="#000000" d="m825.89984 227.34076q0 0.8125 -0.375 1.484375q-0.375 0.671875 -1.140625 1.09375q-0.765625 0.40625 -1.921875 0.40625l-1.40625 0l0 3.359375l-2.28125 0l0 -9.359375l3.6875 0q1.125 0 1.890625 0.390625q0.78125 0.390625 1.15625 1.078125q0.390625 0.671875 0.390625 1.546875zm-3.609375 1.171875q0.65625 0 0.96875 -0.296875q0.328125 -0.3125 0.328125 -0.875q0 -0.5625 -0.328125 -0.859375q-0.3125 -0.3125 -0.96875 -0.3125l-1.234375 0l0 2.34375l1.234375 0zm9.222961 5.265625q-1.3125 0 -2.421875 -0.609375q-1.09375 -0.625 -1.75 -1.71875q-0.640625 -1.09375 -0.640625 -2.46875q0 -1.375 0.640625 -2.46875q0.65625 -1.09375 1.75 -1.703125q1.109375 -0.609375 2.421875 -0.609375q1.328125 0 2.421875 0.609375q1.09375 0.609375 1.71875 1.703125q0.640625 1.09375 0.640625 2.46875q0 1.375 -0.640625 2.46875q-0.640625 1.09375 -1.734375 1.71875q-1.078125 0.609375 -2.40625 0.609375zm0 -2.078125q1.125 0 1.796875 -0.75q0.671875 -0.75 0.671875 -1.96875q0 -1.234375 -0.671875 -1.96875q-0.671875 -0.75 -1.796875 -0.75q-1.125 0 -1.8125 0.734375q-0.671875 0.734375 -0.671875 1.984375q0 1.234375 0.671875 1.984375q0.6875 0.734375 1.8125 0.734375zm9.44458 2.078125q-1.03125 0 -1.84375 -0.328125q-0.8125 -0.34375 -1.296875 -0.984375q-0.484375 -0.65625 -0.515625 -1.578125l2.421875 0q0.046875 0.515625 0.359375 0.796875q0.3125 0.265625 0.796875 0.265625q0.515625 0 0.796875 -0.234375q0.296875 -0.234375 0.296875 -0.640625q0 -0.34375 -0.234375 -0.5625q-0.234375 -0.234375 -0.578125 -0.375q-0.328125 -0.15625 -0.953125 -0.34375q-0.90625 -0.28125 -1.484375 -0.5625q-0.578125 -0.28125 -0.984375 -0.828125q-0.40625 -0.546875 -0.40625 -1.421875q0 -1.3125 0.9375 -2.046875q0.953125 -0.734375 2.46875 -0.734375q1.546875 0 2.484375 0.734375q0.953125 0.734375 1.015625 2.0625l-2.46875 0q-0.015625 -0.453125 -0.328125 -0.703125q-0.3125 -0.265625 -0.78125 -0.265625q-0.421875 0 -0.671875 0.21875q-0.25 0.21875 -0.25 0.625q0 0.453125 0.421875 0.71875q0.4375 0.25 1.34375 0.53125q0.90625 0.3125 1.46875 0.59375q0.5625 0.28125 0.96875 0.8125q0.421875 0.53125 0.421875 1.375q0 0.796875 -0.40625 1.453125q-0.40625 0.640625 -1.1875 1.03125q-0.765625 0.390625 -1.8125 0.390625zm11.540527 -9.453125l0 1.828125l-2.484375 0l0 7.53125l-2.28125 0l0 -7.53125l-2.484375 0l0 -1.828125l7.25 0zm8.108704 7.421875l0 1.9375l-1.15625 0q-1.234375 0 -1.9375 -0.609375q-0.6875 -0.609375 -0.6875 -1.96875l0 -2.96875l-0.90625 0l0 -1.890625l0.90625 0l0 -1.8125l2.28125 0l0 1.8125l1.484375 0l0 1.890625l-1.484375 0l0 2.984375q0 0.34375 0.15625 0.484375q0.15625 0.140625 0.53125 0.140625l0.8125 0zm4.661194 2.046875q-1.09375 0 -1.96875 -0.46875q-0.875 -0.46875 -1.375 -1.328125q-0.5 -0.875 -0.5 -2.03125q0 -1.140625 0.5 -2.015625q0.515625 -0.875 1.390625 -1.34375q0.875 -0.46875 1.96875 -0.46875q1.09375 0 1.96875 0.46875q0.890625 0.46875 1.390625 1.34375q0.515625 0.875 0.515625 2.015625q0 1.140625 -0.515625 2.015625q-0.515625 0.875 -1.40625 1.34375q-0.890625 0.46875 -1.96875 0.46875zm0 -1.96875q0.640625 0 1.09375 -0.484375q0.46875 -0.484375 0.46875 -1.375q0 -0.890625 -0.453125 -1.375q-0.4375 -0.484375 -1.09375 -0.484375q-0.65625 0 -1.109375 0.484375q-0.4375 0.46875 -0.4375 1.375q0 0.890625 0.4375 1.375q0.4375 0.484375 1.09375 0.484375zm13.753052 0.203125l-3.5 0l-0.5625 1.65625l-2.375 0l3.375 -9.359375l2.640625 0l3.390625 9.359375l-2.421875 0l-0.546875 -1.65625zm-0.59375 -1.75l-1.15625 -3.4375l-1.140625 3.4375l2.296875 0zm11.713379 -2.9375q0 0.8125 -0.375 1.484375q-0.375 0.671875 -1.140625 1.09375q-0.765625 0.40625 -1.921875 0.40625l-1.40625 0l0 3.359375l-2.28125 0l0 -9.359375l3.6875 0q1.125 0 1.890625 0.390625q0.78125 0.390625 1.15625 1.078125q0.390625 0.671875 0.390625 1.546875zm-3.609375 1.171875q0.65625 0 0.96875 -0.296875q0.328125 -0.3125 0.328125 -0.875q0 -0.5625 -0.328125 -0.859375q-0.3125 -0.3125 -0.96875 -0.3125l-1.234375 0l0 2.34375l1.234375 0zm7.0823364 -4.1875l0 9.359375l-2.28125 0l0 -9.359375l2.28125 0z" fill-rule="nonzero"/><path fill="#bee3d9" d="m537.64044 292.88452l0 0c0 -23.630829 38.750244 -42.787415 86.55115 -42.787415l0 0c47.800903 0 86.55121 19.156586 86.55121 42.787415l0 0c0 23.630829 -38.750305 42.787384 -86.55121 42.787384l0 0c-47.800903 0 -86.55115 -19.156555 -86.55115 -42.787384z" fill-rule="evenodd"/><path stroke="#7896ad" stroke-width="1.0" stroke-linejoin="round" stroke-linecap="butt" d="m537.64044 292.88452l0 0c0 -23.630829 38.750244 -42.787415 86.55115 -42.787415l0 0c47.800903 0 86.55121 19.156586 86.55121 42.787415l0 0c0 23.630829 -38.750305 42.787384 -86.55121 42.787384l0 0c-47.800903 0 -86.55115 -19.156555 -86.55115 -42.787384z" fill-rule="evenodd"/><path fill="#000000" d="m594.29645 288.32513l0 9.359375l-2.28125 0l0 -5.609375l-2.09375 5.609375l-1.828125 0l-2.109375 -5.625l0 5.625l-2.28125 0l0 -9.359375l2.6875 0l2.625 6.484375l2.609375 -6.484375l2.671875 0zm8.657043 5.515625q0 0.328125 -0.046875 0.671875l-5.15625 0q0.046875 0.6875 0.4375 1.0625q0.40625 0.359375 0.96875 0.359375q0.859375 0 1.1875 -0.71875l2.421875 0q-0.171875 0.734375 -0.671875 1.328125q-0.484375 0.578125 -1.21875 0.921875q-0.734375 0.328125 -1.640625 0.328125q-1.09375 0 -1.953125 -0.46875q-0.84375 -0.46875 -1.328125 -1.328125q-0.46875 -0.875 -0.46875 -2.03125q0 -1.15625 0.46875 -2.015625q0.46875 -0.875 1.328125 -1.34375q0.859375 -0.46875 1.953125 -0.46875q1.09375 0 1.921875 0.453125q0.84375 0.453125 1.3125 1.296875q0.484375 0.84375 0.484375 1.953125zm-2.34375 -0.59375q0 -0.59375 -0.40625 -0.9375q-0.390625 -0.34375 -0.984375 -0.34375q-0.578125 0 -0.96875 0.34375q-0.390625 0.328125 -0.484375 0.9375l2.84375 0zm5.819458 -1.765625q0.390625 -0.609375 0.984375 -0.953125q0.609375 -0.359375 1.34375 -0.359375l0 2.40625l-0.625 0q-0.859375 0 -1.28125 0.375q-0.421875 0.359375 -0.421875 1.28125l0 3.453125l-2.28125 0l0 -7.4375l2.28125 0l0 1.234375zm6.2512817 -1.34375q0.78125 0 1.375 0.328125q0.59375 0.3125 0.90625 0.828125l0 -1.046875l2.28125 0l0 7.421875q0 1.03125 -0.40625 1.859375q-0.40625 0.828125 -1.234375 1.328125q-0.828125 0.5 -2.078125 0.5q-1.640625 0 -2.671875 -0.78125q-1.03125 -0.78125 -1.171875 -2.125l2.25 0q0.109375 0.4375 0.5 0.671875q0.40625 0.25 0.984375 0.25q0.71875 0 1.125 -0.40625q0.421875 -0.40625 0.421875 -1.296875l0 -1.046875q-0.328125 0.515625 -0.921875 0.84375q-0.578125 0.328125 -1.359375 0.328125q-0.921875 0 -1.671875 -0.46875q-0.75 -0.484375 -1.1875 -1.34375q-0.421875 -0.875 -0.421875 -2.03125q0 -1.140625 0.421875 -2.0q0.4375 -0.875 1.1875 -1.34375q0.75 -0.46875 1.671875 -0.46875zm2.28125 3.828125q0 -0.859375 -0.46875 -1.34375q-0.46875 -0.5 -1.15625 -0.5q-0.671875 0 -1.15625 0.5q-0.46875 0.484375 -0.46875 1.328125q0 0.859375 0.46875 1.359375q0.484375 0.5 1.15625 0.5q0.6875 0 1.15625 -0.484375q0.46875 -0.5 0.46875 -1.359375zm10.956055 -0.125q0 0.328125 -0.046875 0.671875l-5.15625 0q0.046875 0.6875 0.4375 1.0625q0.40625 0.359375 0.96875 0.359375q0.859375 0 1.1875 -0.71875l2.421875 0q-0.171875 0.734375 -0.671875 1.328125q-0.484375 0.578125 -1.21875 0.921875q-0.734375 0.328125 -1.640625 0.328125q-1.09375 0 -1.953125 -0.46875q-0.84375 -0.46875 -1.328125 -1.328125q-0.46875 -0.875 -0.46875 -2.03125q0 -1.15625 0.46875 -2.015625q0.46875 -0.875 1.328125 -1.34375q0.859375 -0.46875 1.953125 -0.46875q1.09375 0 1.921875 0.453125q0.84375 0.453125 1.3125 1.296875q0.484375 0.84375 0.484375 1.953125zm-2.34375 -0.59375q0 -0.59375 -0.40625 -0.9375q-0.390625 -0.34375 -0.984375 -0.34375q-0.578125 0 -0.96875 0.34375q-0.390625 0.328125 -0.484375 0.9375l2.84375 0zm12.223145 -4.921875l0 6.375q0 1.484375 -0.828125 2.28125q-0.828125 0.796875 -2.25 0.796875q-1.484375 0 -2.375 -0.84375q-0.890625 -0.84375 -0.890625 -2.375l2.265625 0q0 0.578125 0.234375 0.875q0.25 0.296875 0.703125 0.296875q0.40625 0 0.625 -0.265625q0.234375 -0.265625 0.234375 -0.765625l0 -6.375l2.28125 0zm5.2348633 9.453125q-1.03125 0 -1.84375 -0.328125q-0.8125 -0.34375 -1.296875 -0.984375q-0.484375 -0.65625 -0.515625 -1.578125l2.421875 0q0.046875 0.515625 0.359375 0.796875q0.3125 0.265625 0.796875 0.265625q0.515625 0 0.796875 -0.234375q0.296875 -0.234375 0.296875 -0.640625q0 -0.34375 -0.234375 -0.5625q-0.234375 -0.234375 -0.578125 -0.375q-0.328125 -0.15625 -0.953125 -0.34375q-0.90625 -0.28125 -1.484375 -0.5625q-0.578125 -0.28125 -0.984375 -0.828125q-0.40625 -0.546875 -0.40625 -1.421875q0 -1.3125 0.9375 -2.046875q0.953125 -0.734375 2.46875 -0.734375q1.546875 0 2.484375 0.734375q0.953125 0.734375 1.015625 2.0625l-2.46875 0q-0.015625 -0.453125 -0.328125 -0.703125q-0.3125 -0.265625 -0.78125 -0.265625q-0.421875 0 -0.671875 0.21875q-0.25 0.21875 -0.25 0.625q0 0.453125 0.421875 0.71875q0.4375 0.25 1.34375 0.53125q0.90625 0.3125 1.46875 0.59375q0.5625 0.28125 0.96875 0.8125q0.421875 0.53125 0.421875 1.375q0 0.796875 -0.40625 1.453125q-0.40625 0.640625 -1.1875 1.03125q-0.765625 0.390625 -1.8125 0.390625zm9.228027 0q-1.3125 0 -2.421875 -0.609375q-1.09375 -0.625 -1.75 -1.71875q-0.640625 -1.09375 -0.640625 -2.46875q0 -1.375 0.640625 -2.46875q0.65625 -1.09375 1.75 -1.703125q1.109375 -0.609375 2.421875 -0.609375q1.328125 0 2.421875 0.609375q1.09375 0.609375 1.71875 1.703125q0.640625 1.09375 0.640625 2.46875q0 1.375 -0.640625 2.46875q-0.640625 1.09375 -1.734375 1.71875q-1.078125 0.609375 -2.40625 0.609375zm0 -2.078125q1.125 0 1.796875 -0.75q0.671875 -0.75 0.671875 -1.96875q0 -1.234375 -0.671875 -1.96875q-0.671875 -0.75 -1.796875 -0.75q-1.125 0 -1.8125 0.734375q-0.671875 0.734375 -0.671875 1.984375q0 1.234375 0.671875 1.984375q0.6875 0.734375 1.8125 0.734375zm14.428955 1.984375l-2.28125 0l-3.8125 -5.765625l0 5.765625l-2.28125 0l0 -9.359375l2.28125 0l3.8125 5.796875l0 -5.796875l2.28125 0l0 9.359375z" fill-rule="nonzero"/><path fill="#000000" fill-opacity="0.0" d="m173.39253 307.13977c0 40.86615 58.125977 81.7323 116.25197 81.7323" fill-rule="evenodd"/><path stroke="#6b3077" stroke-width="1.0" stroke-linejoin="round" stroke-linecap="butt" d="m173.39253 307.13977c0 20.433075 14.531494 40.86615 36.328735 56.19095c10.898621 7.662384 23.613678 14.0477295 37.23697 18.517456c6.8116302 2.2348633 13.850327 3.9908447 21.002548 5.18808c3.5761108 0.5986328 7.180603 1.0575867 10.799286 1.3668823c0.9046631 0.077301025 1.8102112 0.14529419 2.7164612 0.20373535c0.45309448 0.02923584 0.9063721 0.05609131 1.3598022 0.08053589l0.8099365 0.039367676" fill-rule="evenodd"/><path fill="#6b3077" stroke="#6b3077" stroke-width="1.0" stroke-linecap="butt" d="m283.60626 390.37805l4.5767517 -1.5413818l-4.496765 -1.7611389z" fill-rule="evenodd"/><path fill="#000000" fill-opacity="0.0" d="m486.74277 172.88452c68.724396 0 137.44882 38.614166 137.44882 77.22833" fill-rule="evenodd"/><path stroke="#6b3077" stroke-width="1.0" stroke-linejoin="round" stroke-linecap="butt" d="m486.74277 172.88452c34.362213 0 68.724396 9.653534 94.49606 24.13385c12.885864 7.240158 23.624023 15.687012 31.140747 24.737213c3.7583618 4.5250854 6.7113647 9.201019 8.7247925 13.952377c1.0067139 2.3756714 1.7785034 4.770218 2.298645 7.174179c0.06500244 0.30047607 0.12609863 0.60112 0.18322754 0.90190125l0.064697266 0.3532257" fill-rule="evenodd"/><path fill="#6b3077" stroke="#6b3077" stroke-width="1.0" stroke-linecap="butt" d="m622.006 244.2861l2.053894 4.370804l1.236084 -4.6684723z" fill-rule="evenodd"/><path fill="#000000" fill-opacity="0.0" d="m462.74277 388.88452c80.724396 0 161.44882 -26.614166 161.44882 -53.228363" fill-rule="evenodd"/><path stroke="#6b3077" stroke-width="1.0" stroke-linejoin="round" stroke-linecap="butt" d="m462.74277 388.88452c40.362213 0 80.724396 -6.6535645 110.99606 -16.63385c15.135864 -4.9901733 27.749023 -10.812012 36.578247 -17.049713c4.414612 -3.118866 7.8832397 -6.341675 10.24823 -9.616486c0.59124756 -0.81869507 1.1135254 -1.640625 1.564331 -2.4649963c0.22540283 -0.41220093 0.4329834 -0.8250122 0.62231445 -1.2383118c0.04736328 -0.10333252 0.09362793 -0.20669556 0.13867188 -0.3100586l0.022399902 -0.052764893" fill-rule="evenodd"/><path fill="#6b3077" stroke="#6b3077" stroke-width="1.0" stroke-linecap="butt" d="m624.5268 341.87033l-0.6467285 -4.7858276l-2.5808716 4.0818787z" fill-rule="evenodd"/><path fill="#000000" fill-opacity="0.0" d="m710.7428 292.88452c42.125977 0 84.25195 -16.86615 84.25195 -33.7323" fill-rule="evenodd"/><path stroke="#6b3077" stroke-width="1.0" stroke-linejoin="round" stroke-linecap="butt" d="m710.7428 292.88452c21.062988 0 42.125977 -4.2165527 57.923218 -10.541351c7.8986206 -3.162384 14.480774 -6.8518677 19.088318 -10.804871c2.303711 -1.9765015 4.1138306 -4.0188904 5.3480225 -6.094208c0.07720947 -0.1296997 0.15209961 -0.259552 0.22467041 -0.38949585l0.06506348 -0.120391846" fill-rule="evenodd"/><path fill="#6b3077" stroke="#6b3077" stroke-width="1.0" stroke-linecap="butt" d="m794.9838 265.37543l-0.37957764 -4.8144226l-2.803894 3.9320374z" fill-rule="evenodd"/><path fill="#000000" fill-opacity="0.0" d="m173.39253 307.13977c0 18.766296 41.401566 50.532562 82.80315 37.532562c41.40158 -13.0 82.80316 -70.766266 82.80316 -141.53256" fill-rule="evenodd"/><path stroke="#6b3077" stroke-width="1.0" stroke-linejoin="round" stroke-linecap="butt" d="m173.39253 307.13977c0 18.766296 41.40158 50.532562 82.80315 37.532562c20.700775 -6.5 41.40158 -24.191559 56.927155 -49.103912c7.7628174 -12.456177 14.231812 -26.71756 18.760101 -42.28778c2.2641602 -7.7851105 4.0431213 -15.89743 5.2560425 -24.274918c0.60650635 -4.188751 1.0714417 -8.443771 1.3847961 -12.75737c0.15664673 -2.1567688 0.27542114 -4.3282013 0.355011 -6.513275l0.019012451 -0.5961304" fill-rule="evenodd"/><path fill="#6b3077" stroke="#6b3077" stroke-width="1.0" stroke-linecap="butt" d="m340.54932 209.16675l-1.5751038 -4.565262l-1.7279053 4.5096436z" fill-rule="evenodd"/><path fill="#000000" fill-opacity="0.0" d="m87.54068 380.65616l157.38583 0l0 35.55905l-157.38583 0z" fill-rule="evenodd"/><path fill="#bee3d9" d="m102.462555 402.45618l-2.21875 -3.796875l-1.46875 0l0 3.796875l-1.203125 0l0 -9.296875l3.0 0q1.046875 0 1.765625 0.375q0.734375 0.359375 1.09375 0.96875q0.359375 0.609375 0.359375 1.390625q0 0.96875 -0.5625 1.703125q-0.546875 0.734375 -1.65625 0.96875l2.34375 3.890625l-1.453125 0zm-3.6875 -4.765625l1.796875 0q0.984375 0 1.46875 -0.484375q0.5 -0.5 0.5 -1.3125q0 -0.828125 -0.484375 -1.28125q-0.484375 -0.453125 -1.484375 -0.453125l-1.796875 0l0 3.53125zm13.556595 0.828125q0 0.359375 -0.03125 0.734375l-5.84375 0q0.0625 1.078125 0.734375 1.6875q0.671875 0.609375 1.640625 0.609375q0.78125 0 1.3125 -0.359375q0.53125 -0.375 0.734375 -0.984375l1.3125 0q-0.296875 1.046875 -1.1875 1.71875q-0.875 0.65625 -2.171875 0.65625q-1.046875 0 -1.875 -0.46875q-0.8125 -0.46875 -1.28125 -1.328125q-0.453125 -0.859375 -0.453125 -2.0q0 -1.125 0.453125 -1.96875q0.453125 -0.859375 1.265625 -1.3125q0.828125 -0.46875 1.890625 -0.46875q1.03125 0 1.828125 0.453125q0.8125 0.453125 1.234375 1.25q0.4375 0.78125 0.4375 1.78125zm-1.25 -0.25q0 -0.6875 -0.3125 -1.1875q-0.296875 -0.5 -0.828125 -0.75q-0.53125 -0.265625 -1.171875 -0.265625q-0.90625 0 -1.5625 0.59375q-0.640625 0.578125 -0.734375 1.609375l4.609375 0zm2.4040375 0.515625q0 -1.125 0.453125 -1.96875q0.453125 -0.84375 1.234375 -1.3125q0.796875 -0.46875 1.765625 -0.46875q0.96875 0 1.671875 0.421875q0.703125 0.40625 1.046875 1.03125l0 -1.328125l1.234375 0l0 7.296875l-1.234375 0l0 -1.359375q-0.359375 0.640625 -1.078125 1.0625q-0.703125 0.421875 -1.640625 0.421875q-0.984375 0 -1.765625 -0.484375q-0.78125 -0.484375 -1.234375 -1.34375q-0.453125 -0.875 -0.453125 -1.96875zm6.171875 0q0 -0.8125 -0.328125 -1.421875q-0.328125 -0.625 -0.90625 -0.953125q-0.5625 -0.328125 -1.234375 -0.328125q-0.6875 0 -1.25 0.328125q-0.546875 0.3125 -0.890625 0.9375q-0.328125 0.609375 -0.328125 1.4375q0 0.828125 0.328125 1.453125q0.34375 0.625 0.890625 0.953125q0.5625 0.3125 1.25 0.3125q0.671875 0 1.234375 -0.3125q0.578125 -0.328125 0.90625 -0.953125q0.328125 -0.625 0.328125 -1.453125zm2.837906 0q0 -1.125 0.453125 -1.96875q0.453125 -0.84375 1.234375 -1.3125q0.796875 -0.46875 1.78125 -0.46875q0.859375 0 1.59375 0.390625q0.734375 0.390625 1.109375 1.03125l0 -3.859375l1.234375 0l0 9.859375l-1.234375 0l0 -1.375q-0.359375 0.65625 -1.0625 1.078125q-0.703125 0.421875 -1.65625 0.421875q-0.96875 0 -1.765625 -0.484375q-0.78125 -0.484375 -1.234375 -1.34375q-0.453125 -0.875 -0.453125 -1.96875zm6.171875 0q0 -0.8125 -0.328125 -1.421875q-0.328125 -0.625 -0.90625 -0.953125q-0.5625 -0.328125 -1.234375 -0.328125q-0.6875 0 -1.25 0.328125q-0.546875 0.3125 -0.890625 0.9375q-0.328125 0.609375 -0.328125 1.4375q0 0.828125 0.328125 1.453125q0.34375 0.625 0.890625 0.953125q0.5625 0.3125 1.25 0.3125q0.671875 0 1.234375 -0.3125q0.578125 -0.328125 0.90625 -0.953125q0.328125 -0.625 0.328125 -1.453125zm8.05275 -2.453125q0.328125 -0.625 0.921875 -0.96875q0.59375 -0.34375 1.4375 -0.34375l0 1.25l-0.3125 0q-2.046875 0 -2.046875 2.21875l0 3.96875l-1.203125 0l0 -7.296875l1.203125 0l0 1.171875zm10.4244995 2.1875q0 0.359375 -0.03125 0.734375l-5.84375 0q0.0625 1.078125 0.734375 1.6875q0.671875 0.609375 1.640625 0.609375q0.78125 0 1.3125 -0.359375q0.53125 -0.375 0.734375 -0.984375l1.3125 0q-0.296875 1.046875 -1.1875 1.71875q-0.875 0.65625 -2.171875 0.65625q-1.046875 0 -1.875 -0.46875q-0.8125 -0.46875 -1.28125 -1.328125q-0.453125 -0.859375 -0.453125 -2.0q0 -1.125 0.453125 -1.96875q0.453125 -0.859375 1.265625 -1.3125q0.828125 -0.46875 1.890625 -0.46875q1.03125 0 1.828125 0.453125q0.8125 0.453125 1.234375 1.25q0.4375 0.78125 0.4375 1.78125zm-1.25 -0.25q0 -0.6875 -0.3125 -1.1875q-0.296875 -0.5 -0.828125 -0.75q-0.53125 -0.265625 -1.171875 -0.265625q-0.90625 0 -1.5625 0.59375q-0.640625 0.578125 -0.734375 1.609375l4.609375 0zm2.4040375 0.515625q0 -1.125 0.453125 -1.96875q0.453125 -0.84375 1.25 -1.3125q0.8125 -0.46875 1.84375 -0.46875q1.359375 0 2.21875 0.65625q0.875 0.640625 1.15625 1.8125l-1.296875 0q-0.1875 -0.671875 -0.734375 -1.046875q-0.53125 -0.390625 -1.34375 -0.390625q-1.03125 0 -1.671875 0.71875q-0.640625 0.703125 -0.640625 2.0q0 1.328125 0.640625 2.046875q0.640625 0.71875 1.671875 0.71875q0.8125 0 1.34375 -0.375q0.53125 -0.375 0.734375 -1.0625l1.296875 0q-0.296875 1.125 -1.171875 1.796875q-0.875 0.671875 -2.203125 0.671875q-1.03125 0 -1.84375 -0.46875q-0.796875 -0.46875 -1.25 -1.3125q-0.453125 -0.859375 -0.453125 -2.015625zm11.730774 3.796875q-1.03125 0 -1.875 -0.46875q-0.828125 -0.46875 -1.296875 -1.328125q-0.46875 -0.859375 -0.46875 -2.0q0 -1.109375 0.484375 -1.96875q0.484375 -0.859375 1.3125 -1.3125q0.84375 -0.46875 1.890625 -0.46875q1.03125 0 1.875 0.46875q0.84375 0.453125 1.328125 1.3125q0.484375 0.84375 0.484375 1.96875q0 1.140625 -0.5 2.0q-0.5 0.859375 -1.359375 1.328125q-0.84375 0.46875 -1.875 0.46875zm0 -1.078125q0.640625 0 1.21875 -0.296875q0.578125 -0.3125 0.921875 -0.921875q0.359375 -0.609375 0.359375 -1.5q0 -0.875 -0.34375 -1.484375q-0.34375 -0.609375 -0.90625 -0.90625q-0.5625 -0.3125 -1.21875 -0.3125q-0.671875 0 -1.21875 0.3125q-0.546875 0.296875 -0.890625 0.90625q-0.328125 0.609375 -0.328125 1.484375q0 0.90625 0.328125 1.515625q0.328125 0.609375 0.875 0.90625q0.546875 0.296875 1.203125 0.296875zm6.5455933 -5.171875q0.328125 -0.625 0.921875 -0.96875q0.59375 -0.34375 1.4375 -0.34375l0 1.25l-0.3125 0q-2.046875 0 -2.046875 2.21875l0 3.96875l-1.203125 0l0 -7.296875l1.203125 0l0 1.171875zm3.3151245 2.453125q0 -1.125 0.453125 -1.96875q0.453125 -0.84375 1.234375 -1.3125q0.796875 -0.46875 1.78125 -0.46875q0.859375 0 1.59375 0.390625q0.734375 0.390625 1.109375 1.03125l0 -3.859375l1.234375 0l0 9.859375l-1.234375 0l0 -1.375q-0.359375 0.65625 -1.0625 1.078125q-0.703125 0.421875 -1.65625 0.421875q-0.96875 0 -1.765625 -0.484375q-0.78125 -0.484375 -1.234375 -1.34375q-0.453125 -0.875 -0.453125 -1.96875zm6.171875 0q0 -0.8125 -0.328125 -1.421875q-0.328125 -0.625 -0.90625 -0.953125q-0.5625 -0.328125 -1.234375 -0.328125q-0.6875 0 -1.25 0.328125q-0.546875 0.3125 -0.890625 0.9375q-0.328125 0.609375 -0.328125 1.4375q0 0.828125 0.328125 1.453125q0.34375 0.625 0.890625 0.953125q0.5625 0.3125 1.25 0.3125q0.671875 0 1.234375 -0.3125q0.578125 -0.328125 0.90625 -0.953125q0.328125 -0.625 0.328125 -1.453125zm8.318375 -2.625l0 4.296875q0 0.53125 0.21875 0.75q0.234375 0.21875 0.796875 0.21875l0.890625 0l0 1.03125l-1.09375 0q-1.0 0 -1.515625 -0.46875q-0.5 -0.46875 -0.5 -1.53125l0 -4.296875l-0.953125 0l0 -1.0l0.953125 0l0 -1.84375l1.203125 0l0 1.84375l1.90625 0l0 1.0l-1.90625 0zm6.570175 6.421875q-1.03125 0 -1.875 -0.46875q-0.828125 -0.46875 -1.296875 -1.328125q-0.46875 -0.859375 -0.46875 -2.0q0 -1.109375 0.484375 -1.96875q0.484375 -0.859375 1.3125 -1.3125q0.84375 -0.46875 1.890625 -0.46875q1.03125 0 1.875 0.46875q0.84375 0.453125 1.328125 1.3125q0.484375 0.84375 0.484375 1.96875q0 1.140625 -0.5 2.0q-0.5 0.859375 -1.359375 1.328125q-0.84375 0.46875 -1.875 0.46875zm0 -1.078125q0.640625 0 1.21875 -0.296875q0.578125 -0.3125 0.921875 -0.921875q0.359375 -0.609375 0.359375 -1.5q0 -0.875 -0.34375 -1.484375q-0.34375 -0.609375 -0.90625 -0.90625q-0.5625 -0.3125 -1.21875 -0.3125q-0.671875 0 -1.21875 0.3125q-0.546875 0.296875 -0.890625 0.90625q-0.328125 0.609375 -0.328125 1.484375q0 0.90625 0.328125 1.515625q0.328125 0.609375 0.875 0.90625q0.546875 0.296875 1.203125 0.296875zm13.572937 -8.34375l0 6.875q0 1.140625 -0.703125 1.828125q-0.703125 0.6875 -1.875 0.6875q-1.171875 0 -1.875 -0.703125q-0.703125 -0.703125 -0.703125 -1.90625l1.21875 0q0 0.671875 0.34375 1.109375q0.34375 0.421875 1.015625 0.421875q0.6875 0 1.015625 -0.40625q0.34375 -0.40625 0.34375 -1.03125l0 -6.875l1.21875 0zm5.3294983 9.390625q-0.921875 0 -1.65625 -0.328125q-0.71875 -0.328125 -1.140625 -0.90625q-0.40625 -0.578125 -0.40625 -1.34375l1.28125 0q0.078125 0.65625 0.546875 1.109375q0.46875 0.4375 1.375 0.4375q0.875 0 1.375 -0.421875q0.5 -0.4375 0.5 -1.125q0 -0.53125 -0.296875 -0.859375q-0.296875 -0.328125 -0.734375 -0.5q-0.4375 -0.1875 -1.1875 -0.375q-0.921875 -0.25 -1.484375 -0.484375q-0.546875 -0.234375 -0.9375 -0.75q-0.390625 -0.515625 -0.390625 -1.390625q0 -0.75 0.390625 -1.328125q0.390625 -0.59375 1.078125 -0.90625q0.703125 -0.328125 1.609375 -0.328125q1.3125 0 2.140625 0.65625q0.828125 0.640625 0.9375 1.71875l-1.328125 0q-0.0625 -0.53125 -0.5625 -0.9375q-0.5 -0.40625 -1.3125 -0.40625q-0.75 0 -1.234375 0.40625q-0.484375 0.390625 -0.484375 1.09375q0 0.5 0.28125 0.828125q0.296875 0.3125 0.71875 0.484375q0.421875 0.171875 1.171875 0.375q0.921875 0.25 1.484375 0.5q0.5625 0.25 0.953125 0.765625q0.40625 0.515625 0.40625 1.390625q0 0.671875 -0.359375 1.28125q-0.359375 0.59375 -1.0625 0.96875q-0.703125 0.375 -1.671875 0.375zm9.089203 0q-1.296875 0 -2.359375 -0.609375q-1.0625 -0.609375 -1.6875 -1.6875q-0.609375 -1.09375 -0.609375 -2.453125q0 -1.359375 0.609375 -2.4375q0.625 -1.09375 1.6875 -1.6875q1.0625 -0.609375 2.359375 -0.609375q1.3125 0 2.375 0.609375q1.0625 0.59375 1.671875 1.671875q0.625 1.078125 0.625 2.453125q0 1.375 -0.625 2.453125q-0.609375 1.078125 -1.671875 1.6875q-1.0625 0.609375 -2.375 0.609375zm0 -1.046875q0.96875 0 1.75 -0.453125q0.78125 -0.453125 1.21875 -1.296875q0.453125 -0.84375 0.453125 -1.953125q0 -1.109375 -0.453125 -1.9375q-0.4375 -0.84375 -1.21875 -1.296875q-0.765625 -0.453125 -1.75 -0.453125q-0.984375 0 -1.765625 0.453125q-0.765625 0.453125 -1.21875 1.296875q-0.4375 0.828125 -0.4375 1.9375q0 1.109375 0.4375 1.953125q0.453125 0.84375 1.234375 1.296875q0.78125 0.453125 1.75 0.453125zm13.569611 0.953125l-1.203125 0l-4.890625 -7.390625l0 7.390625l-1.203125 0l0 -9.296875l1.203125 0l4.890625 7.375l0 -7.375l1.203125 0l0 9.296875z" fill-rule="nonzero"/><path fill="#000000" fill-opacity="0.0" d="m503.54068 132.65617l157.38583 0l0 35.55905l-157.38583 0z" fill-rule="evenodd"/><path fill="#bee3d9" d="m518.82196 145.15929l0 1.0l-4.046875 0l0 3.125l3.28125 0l0 0.984375l-3.28125 0l0 4.1875l-1.203125 0l0 -9.296875l5.25 0zm8.123596 5.359375q0 0.359375 -0.03125 0.734375l-5.84375 0q0.0625 1.078125 0.734375 1.6875q0.671875 0.609375 1.640625 0.609375q0.78125 0 1.3125 -0.359375q0.53125 -0.375 0.734375 -0.984375l1.3125 0q-0.296875 1.046875 -1.1875 1.71875q-0.875 0.65625 -2.171875 0.65625q-1.046875 0 -1.875 -0.46875q-0.8125 -0.46875 -1.28125 -1.328125q-0.453125 -0.859375 -0.453125 -2.0q0 -1.125 0.453125 -1.96875q0.453125 -0.859375 1.265625 -1.3125q0.828125 -0.46875 1.890625 -0.46875q1.03125 0 1.828125 0.453125q0.8125 0.453125 1.234375 1.25q0.4375 0.78125 0.4375 1.78125zm-1.25 -0.25q0 -0.6875 -0.3125 -1.1875q-0.296875 -0.5 -0.828125 -0.75q-0.53125 -0.265625 -1.171875 -0.265625q-0.90625 0 -1.5625 0.59375q-0.640625 0.578125 -0.734375 1.609375l4.609375 0zm4.3258667 -2.109375l0 4.296875q0 0.53125 0.21875 0.75q0.234375 0.21875 0.796875 0.21875l0.890625 0l0 1.03125l-1.09375 0q-1.0 0 -1.515625 -0.46875q-0.5 -0.46875 -0.5 -1.53125l0 -4.296875l-0.953125 0l0 -1.0l0.953125 0l0 -1.84375l1.203125 0l0 1.84375l1.90625 0l0 1.0l-1.90625 0zm2.9295654 2.625q0 -1.125 0.453125 -1.96875q0.453125 -0.84375 1.25 -1.3125q0.8125 -0.46875 1.84375 -0.46875q1.359375 0 2.21875 0.65625q0.875 0.640625 1.15625 1.8125l-1.296875 0q-0.1875 -0.671875 -0.734375 -1.046875q-0.53125 -0.390625 -1.34375 -0.390625q-1.03125 0 -1.671875 0.71875q-0.640625 0.703125 -0.640625 2.0q0 1.328125 0.640625 2.046875q0.640625 0.71875 1.671875 0.71875q0.8125 0 1.34375 -0.375q0.53125 -0.375 0.734375 -1.0625l1.296875 0q-0.296875 1.125 -1.171875 1.796875q-0.875 0.671875 -2.203125 0.671875q-1.03125 0 -1.84375 -0.46875q-0.796875 -0.46875 -1.25 -1.3125q-0.453125 -0.859375 -0.453125 -2.015625zm12.168274 -3.765625q0.828125 0 1.484375 0.359375q0.671875 0.34375 1.046875 1.0625q0.390625 0.703125 0.390625 1.703125l0 4.3125l-1.203125 0l0 -4.125q0 -1.09375 -0.546875 -1.671875q-0.546875 -0.59375 -1.5 -0.59375q-0.953125 0 -1.53125 0.609375q-0.5625 0.59375 -0.5625 1.75l0 4.03125l-1.203125 0l0 -9.859375l1.203125 0l0 3.59375q0.359375 -0.5625 0.984375 -0.859375q0.640625 -0.3125 1.4375 -0.3125zm11.651062 7.5625q-1.03125 0 -1.875 -0.46875q-0.828125 -0.46875 -1.296875 -1.328125q-0.46875 -0.859375 -0.46875 -2.0q0 -1.109375 0.484375 -1.96875q0.484375 -0.859375 1.3125 -1.3125q0.84375 -0.46875 1.890625 -0.46875q1.03125 0 1.875 0.46875q0.84375 0.453125 1.328125 1.3125q0.484375 0.84375 0.484375 1.96875q0 1.140625 -0.5 2.0q-0.5 0.859375 -1.359375 1.328125q-0.84375 0.46875 -1.875 0.46875zm0 -1.078125q0.640625 0 1.21875 -0.296875q0.578125 -0.3125 0.921875 -0.921875q0.359375 -0.609375 0.359375 -1.5q0 -0.875 -0.34375 -1.484375q-0.34375 -0.609375 -0.90625 -0.90625q-0.5625 -0.3125 -1.21875 -0.3125q-0.671875 0 -1.21875 0.3125q-0.546875 0.296875 -0.890625 0.90625q-0.328125 0.609375 -0.328125 1.484375q0 0.90625 0.328125 1.515625q0.328125 0.609375 0.875 0.90625q0.546875 0.296875 1.203125 0.296875zm6.5455933 -5.171875q0.328125 -0.625 0.921875 -0.96875q0.59375 -0.34375 1.4375 -0.34375l0 1.25l-0.3125 0q-2.046875 0 -2.046875 2.21875l0 3.96875l-1.203125 0l0 -7.296875l1.203125 0l0 1.171875zm6.7682495 -1.296875q0.953125 0 1.65625 0.421875q0.71875 0.40625 1.0625 1.03125l0 -1.328125l1.234375 0l0 7.453125q0 1.0 -0.4375 1.78125q-0.421875 0.78125 -1.21875 1.21875q-0.78125 0.4375 -1.84375 0.4375q-1.4375 0 -2.390625 -0.6875q-0.953125 -0.671875 -1.140625 -1.84375l1.203125 0q0.203125 0.671875 0.828125 1.078125q0.625 0.40625 1.5 0.40625q1.0 0 1.625 -0.625q0.640625 -0.625 0.640625 -1.765625l0 -1.53125q-0.359375 0.640625 -1.0625 1.078125q-0.703125 0.421875 -1.65625 0.421875q-0.96875 0 -1.765625 -0.484375q-0.78125 -0.484375 -1.234375 -1.34375q-0.453125 -0.875 -0.453125 -1.96875q0 -1.125 0.453125 -1.96875q0.453125 -0.84375 1.234375 -1.3125q0.796875 -0.46875 1.765625 -0.46875zm2.71875 3.75q0 -0.8125 -0.328125 -1.421875q-0.328125 -0.625 -0.90625 -0.953125q-0.5625 -0.328125 -1.234375 -0.328125q-0.6875 0 -1.25 0.328125q-0.546875 0.3125 -0.890625 0.9375q-0.328125 0.609375 -0.328125 1.4375q0 0.828125 0.328125 1.453125q0.34375 0.625 0.890625 0.953125q0.5625 0.3125 1.25 0.3125q0.671875 0 1.234375 -0.3125q0.578125 -0.328125 0.90625 -0.953125q0.328125 -0.625 0.328125 -1.453125zm15.630859 -3.765625q0.84375 0 1.515625 0.359375q0.671875 0.34375 1.046875 1.0625q0.390625 0.703125 0.390625 1.703125l0 4.3125l-1.203125 0l0 -4.125q0 -1.09375 -0.546875 -1.671875q-0.53125 -0.59375 -1.453125 -0.59375q-0.9375 0 -1.5 0.609375q-0.5625 0.609375 -0.5625 1.75l0 4.03125l-1.203125 0l0 -4.125q0 -1.09375 -0.546875 -1.671875q-0.53125 -0.59375 -1.4375 -0.59375q-0.953125 0 -1.515625 0.609375q-0.5625 0.609375 -0.5625 1.75l0 4.03125l-1.203125 0l0 -7.296875l1.203125 0l0 1.046875q0.359375 -0.578125 0.96875 -0.875q0.609375 -0.3125 1.34375 -0.3125q0.921875 0 1.625 0.421875q0.703125 0.40625 1.046875 1.203125q0.3125 -0.765625 1.015625 -1.1875q0.703125 -0.4375 1.578125 -0.4375zm11.602966 3.5q0 0.359375 -0.03125 0.734375l-5.84375 0q0.0625 1.078125 0.734375 1.6875q0.671875 0.609375 1.640625 0.609375q0.78125 0 1.3125 -0.359375q0.53125 -0.375 0.734375 -0.984375l1.3125 0q-0.296875 1.046875 -1.1875 1.71875q-0.875 0.65625 -2.171875 0.65625q-1.046875 0 -1.875 -0.46875q-0.8125 -0.46875 -1.28125 -1.328125q-0.453125 -0.859375 -0.453125 -2.0q0 -1.125 0.453125 -1.96875q0.453125 -0.859375 1.265625 -1.3125q0.828125 -0.46875 1.890625 -0.46875q1.03125 0 1.828125 0.453125q0.8125 0.453125 1.234375 1.25q0.4375 0.78125 0.4375 1.78125zm-1.25 -0.25q0 -0.6875 -0.3125 -1.1875q-0.296875 -0.5 -0.828125 -0.75q-0.53125 -0.265625 -1.171875 -0.265625q-0.90625 0 -1.5625 0.59375q-0.640625 0.578125 -0.734375 1.609375l4.609375 0zm4.3258667 -2.109375l0 4.296875q0 0.53125 0.21875 0.75q0.234375 0.21875 0.796875 0.21875l0.890625 0l0 1.03125l-1.09375 0q-1.0 0 -1.515625 -0.46875q-0.5 -0.46875 -0.5 -1.53125l0 -4.296875l-0.953125 0l0 -1.0l0.953125 0l0 -1.84375l1.203125 0l0 1.84375l1.90625 0l0 1.0l-1.90625 0zm2.9295654 2.625q0 -1.125 0.453125 -1.96875q0.453125 -0.84375 1.234375 -1.3125q0.796875 -0.46875 1.765625 -0.46875q0.96875 0 1.671875 0.421875q0.703125 0.40625 1.046875 1.03125l0 -1.328125l1.234375 0l0 7.296875l-1.234375 0l0 -1.359375q-0.359375 0.640625 -1.078125 1.0625q-0.703125 0.421875 -1.640625 0.421875q-0.984375 0 -1.765625 -0.484375q-0.78125 -0.484375 -1.234375 -1.34375q-0.453125 -0.875 -0.453125 -1.96875zm6.171875 0q0 -0.8125 -0.328125 -1.421875q-0.328125 -0.625 -0.90625 -0.953125q-0.5625 -0.328125 -1.234375 -0.328125q-0.6875 0 -1.25 0.328125q-0.546875 0.3125 -0.890625 0.9375q-0.328125 0.609375 -0.328125 1.4375q0 0.828125 0.328125 1.453125q0.34375 0.625 0.890625 0.953125q0.5625 0.3125 1.25 0.3125q0.671875 0 1.234375 -0.3125q0.578125 -0.328125 0.90625 -0.953125q0.328125 -0.625 0.328125 -1.453125zm2.8378906 0q0 -1.125 0.453125 -1.96875q0.453125 -0.84375 1.234375 -1.3125q0.796875 -0.46875 1.78125 -0.46875q0.859375 0 1.59375 0.390625q0.734375 0.390625 1.109375 1.03125l0 -3.859375l1.234375 0l0 9.859375l-1.234375 0l0 -1.375q-0.359375 0.65625 -1.0625 1.078125q-0.703125 0.421875 -1.65625 0.421875q-0.96875 0 -1.765625 -0.484375q-0.78125 -0.484375 -1.234375 -1.34375q-0.453125 -0.875 -0.453125 -1.96875zm6.171875 0q0 -0.8125 -0.328125 -1.421875q-0.328125 -0.625 -0.90625 -0.953125q-0.5625 -0.328125 -1.234375 -0.328125q-0.6875 0 -1.25 0.328125q-0.546875 0.3125 -0.890625 0.9375q-0.328125 0.609375 -0.328125 1.4375q0 0.828125 0.328125 1.453125q0.34375 0.625 0.890625 0.953125q0.5625 0.3125 1.25 0.3125q0.671875 0 1.234375 -0.3125q0.578125 -0.328125 0.90625 -0.953125q0.328125 -0.625 0.328125 -1.453125zm2.8379517 0q0 -1.125 0.453125 -1.96875q0.453125 -0.84375 1.234375 -1.3125q0.796875 -0.46875 1.765625 -0.46875q0.96875 0 1.671875 0.421875q0.703125 0.40625 1.046875 1.03125l0 -1.328125l1.234375 0l0 7.296875l-1.234375 0l0 -1.359375q-0.359375 0.640625 -1.078125 1.0625q-0.703125 0.421875 -1.640625 0.421875q-0.984375 0 -1.765625 -0.484375q-0.78125 -0.484375 -1.234375 -1.34375q-0.453125 -0.875 -0.453125 -1.96875zm6.171875 0q0 -0.8125 -0.328125 -1.421875q-0.328125 -0.625 -0.90625 -0.953125q-0.5625 -0.328125 -1.234375 -0.328125q-0.6875 0 -1.25 0.328125q-0.546875 0.3125 -0.890625 0.9375q-0.328125 0.609375 -0.328125 1.4375q0 0.828125 0.328125 1.453125q0.34375 0.625 0.890625 0.953125q0.5625 0.3125 1.25 0.3125q0.671875 0 1.234375 -0.3125q0.578125 -0.328125 0.90625 -0.953125q0.328125 -0.625 0.328125 -1.453125zm4.7597656 -2.625l0 4.296875q0 0.53125 0.21875 0.75q0.234375 0.21875 0.796875 0.21875l0.890625 0l0 1.03125l-1.09375 0q-1.0 0 -1.515625 -0.46875q-0.5 -0.46875 -0.5 -1.53125l0 -4.296875l-0.953125 0l0 -1.0l0.953125 0l0 -1.84375l1.203125 0l0 1.84375l1.90625 0l0 1.0l-1.90625 0zm2.9295654 2.625q0 -1.125 0.453125 -1.96875q0.453125 -0.84375 1.234375 -1.3125q0.796875 -0.46875 1.765625 -0.46875q0.96875 0 1.671875 0.421875q0.703125 0.40625 1.046875 1.03125l0 -1.328125l1.234375 0l0 7.296875l-1.234375 0l0 -1.359375q-0.359375 0.640625 -1.078125 1.0625q-0.703125 0.421875 -1.640625 0.421875q-0.984375 0 -1.765625 -0.484375q-0.78125 -0.484375 -1.234375 -1.34375q-0.453125 -0.875 -0.453125 -1.96875zm6.171875 0q0 -0.8125 -0.328125 -1.421875q-0.328125 -0.625 -0.90625 -0.953125q-0.5625 -0.328125 -1.234375 -0.328125q-0.6875 0 -1.25 0.328125q-0.546875 0.3125 -0.890625 0.9375q-0.328125 0.609375 -0.328125 1.4375q0 0.828125 0.328125 1.453125q0.34375 0.625 0.890625 0.953125q0.5625 0.3125 1.25 0.3125q0.671875 0 1.234375 -0.3125q0.578125 -0.328125 0.90625 -0.953125q0.328125 -0.625 0.328125 -1.453125z" fill-rule="nonzero"/><path fill="#000000" fill-opacity="0.0" d="m503.54068 396.65616l157.38583 0l0 35.55905l-157.38583 0z" fill-rule="evenodd"/><path fill="#bee3d9" d="m518.4626 418.45618l-2.21875 -3.796875l-1.46875 0l0 3.796875l-1.203125 0l0 -9.296875l3.0 0q1.046875 0 1.765625 0.375q0.734375 0.359375 1.09375 0.96875q0.359375 0.609375 0.359375 1.390625q0 0.96875 -0.5625 1.703125q-0.546875 0.734375 -1.65625 0.96875l2.34375 3.890625l-1.453125 0zm-3.6875 -4.765625l1.796875 0q0.984375 0 1.46875 -0.484375q0.5 -0.5 0.5 -1.3125q0 -0.828125 -0.484375 -1.28125q-0.484375 -0.453125 -1.484375 -0.453125l-1.796875 0l0 3.53125zm13.55658 0.828125q0 0.359375 -0.03125 0.734375l-5.84375 0q0.0625 1.078125 0.734375 1.6875q0.671875 0.609375 1.640625 0.609375q0.78125 0 1.3125 -0.359375q0.53125 -0.375 0.734375 -0.984375l1.3125 0q-0.296875 1.046875 -1.1875 1.71875q-0.875 0.65625 -2.171875 0.65625q-1.046875 0 -1.875 -0.46875q-0.8125 -0.46875 -1.28125 -1.328125q-0.453125 -0.859375 -0.453125 -2.0q0 -1.125 0.453125 -1.96875q0.453125 -0.859375 1.265625 -1.3125q0.828125 -0.46875 1.890625 -0.46875q1.03125 0 1.828125 0.453125q0.8125 0.453125 1.234375 1.25q0.4375 0.78125 0.4375 1.78125zm-1.25 -0.25q0 -0.6875 -0.3125 -1.1875q-0.296875 -0.5 -0.828125 -0.75q-0.53125 -0.265625 -1.171875 -0.265625q-0.90625 0 -1.5625 0.59375q-0.640625 0.578125 -0.734375 1.609375l4.609375 0zm11.638428 -3.25q0.84375 0 1.515625 0.359375q0.671875 0.34375 1.046875 1.0625q0.390625 0.703125 0.390625 1.703125l0 4.3125l-1.203125 0l0 -4.125q0 -1.09375 -0.546875 -1.671875q-0.53125 -0.59375 -1.453125 -0.59375q-0.9375 0 -1.5 0.609375q-0.5625 0.609375 -0.5625 1.75l0 4.03125l-1.203125 0l0 -4.125q0 -1.09375 -0.546875 -1.671875q-0.53125 -0.59375 -1.4375 -0.59375q-0.953125 0 -1.515625 0.609375q-0.5625 0.609375 -0.5625 1.75l0 4.03125l-1.203125 0l0 -7.296875l1.203125 0l0 1.046875q0.359375 -0.578125 0.96875 -0.875q0.609375 -0.3125 1.34375 -0.3125q0.921875 0 1.625 0.421875q0.703125 0.40625 1.046875 1.203125q0.3125 -0.765625 1.015625 -1.1875q0.703125 -0.4375 1.578125 -0.4375zm4.4935303 3.765625q0 -1.125 0.453125 -1.96875q0.453125 -0.84375 1.234375 -1.3125q0.796875 -0.46875 1.765625 -0.46875q0.96875 0 1.671875 0.421875q0.703125 0.40625 1.046875 1.03125l0 -1.328125l1.234375 0l0 7.296875l-1.234375 0l0 -1.359375q-0.359375 0.640625 -1.078125 1.0625q-0.703125 0.421875 -1.640625 0.421875q-0.984375 0 -1.765625 -0.484375q-0.78125 -0.484375 -1.234375 -1.34375q-0.453125 -0.875 -0.453125 -1.96875zm6.171875 0q0 -0.8125 -0.328125 -1.421875q-0.328125 -0.625 -0.90625 -0.953125q-0.5625 -0.328125 -1.234375 -0.328125q-0.6875 0 -1.25 0.328125q-0.546875 0.3125 -0.890625 0.9375q-0.328125 0.609375 -0.328125 1.4375q0 0.828125 0.328125 1.453125q0.34375 0.625 0.890625 0.953125q0.5625 0.3125 1.25 0.3125q0.671875 0 1.234375 -0.3125q0.578125 -0.328125 0.90625 -0.953125q0.328125 -0.625 0.328125 -1.453125zm4.4941406 -2.28125q0.359375 -0.625 1.078125 -1.046875q0.71875 -0.421875 1.65625 -0.421875q0.96875 0 1.765625 0.46875q0.796875 0.46875 1.25 1.3125q0.453125 0.84375 0.453125 1.96875q0 1.09375 -0.453125 1.96875q-0.453125 0.859375 -1.25 1.34375q-0.796875 0.484375 -1.765625 0.484375q-0.9375 0 -1.65625 -0.421875q-0.703125 -0.421875 -1.078125 -1.046875l0 4.8125l-1.203125 0l0 -10.765625l1.203125 0l0 1.34375zm4.96875 2.28125q0 -0.828125 -0.34375 -1.4375q-0.328125 -0.625 -0.90625 -0.9375q-0.5625 -0.328125 -1.234375 -0.328125q-0.671875 0 -1.234375 0.328125q-0.5625 0.328125 -0.90625 0.953125q-0.34375 0.609375 -0.34375 1.421875q0 0.828125 0.34375 1.453125q0.34375 0.625 0.90625 0.953125q0.5625 0.3125 1.234375 0.3125q0.671875 0 1.234375 -0.3125q0.578125 -0.328125 0.90625 -0.953125q0.34375 -0.625 0.34375 -1.453125zm9.365234 -2.625l-1.53125 0l0 6.296875l-1.21875 0l0 -6.296875l-0.9375 0l0 -1.0l0.9375 0l0 -0.53125q0 -1.21875 0.625 -1.78125q0.640625 -0.578125 2.046875 -0.578125l0 1.015625q-0.796875 0 -1.125 0.3125q-0.328125 0.3125 -0.328125 1.03125l0 0.53125l1.53125 0l0 1.0zm2.0411987 -2.1875q-0.34375 0 -0.59375 -0.234375q-0.234375 -0.25 -0.234375 -0.59375q0 -0.34375 0.234375 -0.578125q0.25 -0.25 0.59375 -0.25q0.328125 0 0.5625 0.25q0.234375 0.234375 0.234375 0.578125q0 0.34375 -0.234375 0.59375q-0.234375 0.234375 -0.5625 0.234375zm0.578125 1.1875l0 7.296875l-1.203125 0l0 -7.296875l1.203125 0zm8.731812 3.359375q0 0.359375 -0.03125 0.734375l-5.84375 0q0.0625 1.078125 0.734375 1.6875q0.671875 0.609375 1.640625 0.609375q0.78125 0 1.3125 -0.359375q0.53125 -0.375 0.734375 -0.984375l1.3125 0q-0.296875 1.046875 -1.1875 1.71875q-0.875 0.65625 -2.171875 0.65625q-1.046875 0 -1.875 -0.46875q-0.8125 -0.46875 -1.28125 -1.328125q-0.453125 -0.859375 -0.453125 -2.0q0 -1.125 0.453125 -1.96875q0.453125 -0.859375 1.265625 -1.3125q0.828125 -0.46875 1.890625 -0.46875q1.03125 0 1.828125 0.453125q0.8125 0.453125 1.234375 1.25q0.4375 0.78125 0.4375 1.78125zm-1.25 -0.25q0 -0.6875 -0.3125 -1.1875q-0.296875 -0.5 -0.828125 -0.75q-0.53125 -0.265625 -1.171875 -0.265625q-0.90625 0 -1.5625 0.59375q-0.640625 0.578125 -0.734375 1.609375l4.609375 0zm4.0603027 -5.671875l0 9.859375l-1.203125 0l0 -9.859375l1.203125 0zm1.6224365 6.1875q0 -1.125 0.453125 -1.96875q0.453125 -0.84375 1.234375 -1.3125q0.796875 -0.46875 1.78125 -0.46875q0.859375 0 1.59375 0.390625q0.734375 0.390625 1.109375 1.03125l0 -3.859375l1.234375 0l0 9.859375l-1.234375 0l0 -1.375q-0.359375 0.65625 -1.0625 1.078125q-0.703125 0.421875 -1.65625 0.421875q-0.96875 0 -1.765625 -0.484375q-0.78125 -0.484375 -1.234375 -1.34375q-0.453125 -0.875 -0.453125 -1.96875zm6.171875 0q0 -0.8125 -0.328125 -1.421875q-0.328125 -0.625 -0.90625 -0.953125q-0.5625 -0.328125 -1.234375 -0.328125q-0.6875 0 -1.25 0.328125q-0.546875 0.3125 -0.890625 0.9375q-0.328125 0.609375 -0.328125 1.4375q0 0.828125 0.328125 1.453125q0.34375 0.625 0.890625 0.953125q0.5625 0.3125 1.25 0.3125q0.671875 0 1.234375 -0.3125q0.578125 -0.328125 0.90625 -0.953125q0.328125 -0.625 0.328125 -1.453125zm5.8692017 3.796875q-0.84375 0 -1.515625 -0.28125q-0.65625 -0.296875 -1.046875 -0.8125q-0.375 -0.515625 -0.421875 -1.171875l1.25 0q0.0625 0.546875 0.515625 0.890625q0.46875 0.34375 1.203125 0.34375q0.703125 0 1.09375 -0.296875q0.40625 -0.3125 0.40625 -0.78125q0 -0.484375 -0.4375 -0.71875q-0.421875 -0.234375 -1.3125 -0.453125q-0.8125 -0.21875 -1.328125 -0.4375q-0.515625 -0.21875 -0.890625 -0.640625q-0.359375 -0.4375 -0.359375 -1.15625q0 -0.546875 0.328125 -1.015625q0.34375 -0.46875 0.953125 -0.734375q0.625 -0.28125 1.40625 -0.28125q1.21875 0 1.953125 0.609375q0.75 0.609375 0.796875 1.6875l-1.203125 0q-0.046875 -0.578125 -0.46875 -0.921875q-0.40625 -0.34375 -1.125 -0.34375q-0.640625 0 -1.03125 0.28125q-0.390625 0.265625 -0.390625 0.71875q0 0.359375 0.234375 0.59375q0.234375 0.234375 0.578125 0.375q0.359375 0.140625 0.984375 0.3125q0.796875 0.21875 1.28125 0.421875q0.5 0.203125 0.84375 0.625q0.359375 0.40625 0.375 1.078125q0 0.59375 -0.34375 1.078125q-0.328125 0.484375 -0.9375 0.765625q-0.609375 0.265625 -1.390625 0.265625z" fill-rule="nonzero"/><path fill="#000000" fill-opacity="0.0" d="m743.5407 292.65616l157.3858 0l0 51.716553l-157.3858 0z" fill-rule="evenodd"/><path fill="#bee3d9" d="m759.7751 307.87805q0 1.171875 -0.796875 1.9375q-0.78125 0.765625 -2.40625 0.765625l-1.796875 0l0 3.875l-1.203125 0l0 -9.296875l3.0 0q1.5625 0 2.375 0.765625q0.828125 0.765625 0.828125 1.953125zm-3.203125 1.703125q1.0 0 1.484375 -0.4375q0.484375 -0.4375 0.484375 -1.265625q0 -1.71875 -1.96875 -1.71875l-1.796875 0l0 3.421875l1.796875 0zm5.920044 -1.25q0.328125 -0.625 0.921875 -0.96875q0.59375 -0.34375 1.4375 -0.34375l0 1.25l-0.3125 0q-2.046875 0 -2.046875 2.21875l0 3.96875l-1.203125 0l0 -7.296875l1.203125 0l0 1.171875zm10.4244995 2.1875q0 0.359375 -0.03125 0.734375l-5.84375 0q0.0625 1.078125 0.734375 1.6875q0.671875 0.609375 1.640625 0.609375q0.78125 0 1.3125 -0.359375q0.53125 -0.375 0.734375 -0.984375l1.3125 0q-0.296875 1.046875 -1.1875 1.71875q-0.875 0.65625 -2.171875 0.65625q-1.046875 0 -1.875 -0.46875q-0.8125 -0.46875 -1.28125 -1.328125q-0.453125 -0.859375 -0.453125 -2.0q0 -1.125 0.453125 -1.96875q0.453125 -0.859375 1.265625 -1.3125q0.828125 -0.46875 1.890625 -0.46875q1.03125 0 1.828125 0.453125q0.8125 0.453125 1.234375 1.25q0.4375 0.78125 0.4375 1.78125zm-1.25 -0.25q0 -0.6875 -0.3125 -1.1875q-0.296875 -0.5 -0.828125 -0.75q-0.53125 -0.265625 -1.171875 -0.265625q-0.90625 0 -1.5625 0.59375q-0.640625 0.578125 -0.734375 1.609375l4.609375 0zm4.0603027 -1.765625q0.359375 -0.625 1.078125 -1.046875q0.71875 -0.421875 1.65625 -0.421875q0.96875 0 1.765625 0.46875q0.796875 0.46875 1.25 1.3125q0.453125 0.84375 0.453125 1.96875q0 1.09375 -0.453125 1.96875q-0.453125 0.859375 -1.25 1.34375q-0.796875 0.484375 -1.765625 0.484375q-0.9375 0 -1.65625 -0.421875q-0.703125 -0.421875 -1.078125 -1.046875l0 4.8125l-1.203125 0l0 -10.765625l1.203125 0l0 1.34375zm4.96875 2.28125q0 -0.828125 -0.34375 -1.4375q-0.328125 -0.625 -0.90625 -0.9375q-0.5625 -0.328125 -1.234375 -0.328125q-0.671875 0 -1.234375 0.328125q-0.5625 0.328125 -0.90625 0.953125q-0.34375 0.609375 -0.34375 1.421875q0 0.828125 0.34375 1.453125q0.34375 0.625 0.90625 0.953125q0.5625 0.3125 1.234375 0.3125q0.671875 0 1.234375 -0.3125q0.578125 -0.328125 0.90625 -0.953125q0.34375 -0.625 0.34375 -1.453125zm2.3847656 0q0 -1.125 0.453125 -1.96875q0.453125 -0.84375 1.234375 -1.3125q0.796875 -0.46875 1.765625 -0.46875q0.96875 0 1.671875 0.421875q0.703125 0.40625 1.046875 1.03125l0 -1.328125l1.234375 0l0 7.296875l-1.234375 0l0 -1.359375q-0.359375 0.640625 -1.078125 1.0625q-0.703125 0.421875 -1.640625 0.421875q-0.984375 0 -1.765625 -0.484375q-0.78125 -0.484375 -1.234375 -1.34375q-0.453125 -0.875 -0.453125 -1.96875zm6.171875 0q0 -0.8125 -0.328125 -1.421875q-0.328125 -0.625 -0.90625 -0.953125q-0.5625 -0.328125 -1.234375 -0.328125q-0.6875 0 -1.25 0.328125q-0.546875 0.3125 -0.890625 0.9375q-0.328125 0.609375 -0.328125 1.4375q0 0.828125 0.328125 1.453125q0.34375 0.625 0.890625 0.953125q0.5625 0.3125 1.25 0.3125q0.671875 0 1.234375 -0.3125q0.578125 -0.328125 0.90625 -0.953125q0.328125 -0.625 0.328125 -1.453125zm4.4941406 -2.453125q0.328125 -0.625 0.921875 -0.96875q0.59375 -0.34375 1.4375 -0.34375l0 1.25l-0.3125 0q-2.046875 0 -2.046875 2.21875l0 3.96875l-1.203125 0l0 -7.296875l1.203125 0l0 1.171875zm10.4244995 2.1875q0 0.359375 -0.03125 0.734375l-5.84375 0q0.0625 1.078125 0.734375 1.6875q0.671875 0.609375 1.640625 0.609375q0.78125 0 1.3125 -0.359375q0.53125 -0.375 0.734375 -0.984375l1.3125 0q-0.296875 1.046875 -1.1875 1.71875q-0.875 0.65625 -2.171875 0.65625q-1.046875 0 -1.875 -0.46875q-0.8125 -0.46875 -1.28125 -1.328125q-0.453125 -0.859375 -0.453125 -2.0q0 -1.125 0.453125 -1.96875q0.453125 -0.859375 1.265625 -1.3125q0.828125 -0.46875 1.890625 -0.46875q1.03125 0 1.828125 0.453125q0.8125 0.453125 1.234375 1.25q0.4375 0.78125 0.4375 1.78125zm-1.25 -0.25q0 -0.6875 -0.3125 -1.1875q-0.296875 -0.5 -0.828125 -0.75q-0.53125 -0.265625 -1.171875 -0.265625q-0.90625 0 -1.5625 0.59375q-0.640625 0.578125 -0.734375 1.609375l4.609375 0zm7.6188965 -1.9375q0.328125 -0.625 0.921875 -0.96875q0.59375 -0.34375 1.4375 -0.34375l0 1.25l-0.3125 0q-2.046875 0 -2.046875 2.21875l0 3.96875l-1.203125 0l0 -7.296875l1.203125 0l0 1.171875zm10.4244995 2.1875q0 0.359375 -0.03125 0.734375l-5.84375 0q0.0625 1.078125 0.734375 1.6875q0.671875 0.609375 1.640625 0.609375q0.78125 0 1.3125 -0.359375q0.53125 -0.375 0.734375 -0.984375l1.3125 0q-0.296875 1.046875 -1.1875 1.71875q-0.875 0.65625 -2.171875 0.65625q-1.046875 0 -1.875 -0.46875q-0.8125 -0.46875 -1.28125 -1.328125q-0.453125 -0.859375 -0.453125 -2.0q0 -1.125 0.453125 -1.96875q0.453125 -0.859375 1.265625 -1.3125q0.828125 -0.46875 1.890625 -0.46875q1.03125 0 1.828125 0.453125q0.8125 0.453125 1.234375 1.25q0.4375 0.78125 0.4375 1.78125zm-1.25 -0.25q0 -0.6875 -0.3125 -1.1875q-0.296875 -0.5 -0.828125 -0.75q-0.53125 -0.265625 -1.171875 -0.265625q-0.90625 0 -1.5625 0.59375q-0.640625 0.578125 -0.734375 1.609375l4.609375 0zm2.4040527 0.515625q0 -1.125 0.453125 -1.96875q0.453125 -0.84375 1.234375 -1.3125q0.796875 -0.46875 1.78125 -0.46875q0.953125 0 1.65625 0.421875q0.71875 0.421875 1.046875 1.03125l0 -1.328125l1.234375 0l0 10.765625l-1.234375 0l0 -4.8125q-0.34375 0.609375 -1.0625 1.046875q-0.71875 0.421875 -1.671875 0.421875q-0.96875 0 -1.75 -0.484375q-0.78125 -0.484375 -1.234375 -1.34375q-0.453125 -0.875 -0.453125 -1.96875zm6.171875 0q0 -0.8125 -0.328125 -1.421875q-0.328125 -0.625 -0.90625 -0.953125q-0.5625 -0.328125 -1.234375 -0.328125q-0.6875 0 -1.25 0.328125q-0.546875 0.3125 -0.890625 0.9375q-0.328125 0.609375 -0.328125 1.4375q0 0.828125 0.328125 1.453125q0.34375 0.625 0.890625 0.953125q0.5625 0.3125 1.25 0.3125q0.671875 0 1.234375 -0.3125q0.578125 -0.328125 0.90625 -0.953125q0.328125 -0.625 0.328125 -1.453125zm9.759766 -3.625l0 7.296875l-1.203125 0l0 -1.078125q-0.359375 0.5625 -0.984375 0.875q-0.609375 0.3125 -1.359375 0.3125q-0.84375 0 -1.53125 -0.34375q-0.671875 -0.359375 -1.078125 -1.0625q-0.390625 -0.71875 -0.390625 -1.734375l0 -4.265625l1.203125 0l0 4.109375q0 1.078125 0.546875 1.65625q0.546875 0.578125 1.5 0.578125q0.96875 0 1.53125 -0.59375q0.5625 -0.59375 0.5625 -1.75l0 -4.0l1.203125 0zm8.717468 3.359375q0 0.359375 -0.03125 0.734375l-5.84375 0q0.0625 1.078125 0.734375 1.6875q0.671875 0.609375 1.640625 0.609375q0.78125 0 1.3125 -0.359375q0.53125 -0.375 0.734375 -0.984375l1.3125 0q-0.296875 1.046875 -1.1875 1.71875q-0.875 0.65625 -2.171875 0.65625q-1.046875 0 -1.875 -0.46875q-0.8125 -0.46875 -1.28125 -1.328125q-0.453125 -0.859375 -0.453125 -2.0q0 -1.125 0.453125 -1.96875q0.453125 -0.859375 1.265625 -1.3125q0.828125 -0.46875 1.890625 -0.46875q1.03125 0 1.828125 0.453125q0.8125 0.453125 1.234375 1.25q0.4375 0.78125 0.4375 1.78125zm-1.25 -0.25q0 -0.6875 -0.3125 -1.1875q-0.296875 -0.5 -0.828125 -0.75q-0.53125 -0.265625 -1.171875 -0.265625q-0.90625 0 -1.5625 0.59375q-0.640625 0.578125 -0.734375 1.609375l4.609375 0zm5.4353027 4.3125q-0.84375 0 -1.515625 -0.28125q-0.65625 -0.296875 -1.046875 -0.8125q-0.375 -0.515625 -0.421875 -1.171875l1.25 0q0.0625 0.546875 0.515625 0.890625q0.46875 0.34375 1.203125 0.34375q0.703125 0 1.09375 -0.296875q0.40625 -0.3125 0.40625 -0.78125q0 -0.484375 -0.4375 -0.71875q-0.421875 -0.234375 -1.3125 -0.453125q-0.8125 -0.21875 -1.328125 -0.4375q-0.515625 -0.21875 -0.890625 -0.640625q-0.359375 -0.4375 -0.359375 -1.15625q0 -0.546875 0.328125 -1.015625q0.34375 -0.46875 0.953125 -0.734375q0.625 -0.28125 1.40625 -0.28125q1.21875 0 1.953125 0.609375q0.75 0.609375 0.796875 1.6875l-1.203125 0q-0.046875 -0.578125 -0.46875 -0.921875q-0.40625 -0.34375 -1.125 -0.34375q-0.640625 0 -1.03125 0.28125q-0.390625 0.265625 -0.390625 0.71875q0 0.359375 0.234375 0.59375q0.234375 0.234375 0.578125 0.375q0.359375 0.140625 0.984375 0.3125q0.796875 0.21875 1.28125 0.421875q0.5 0.203125 0.84375 0.625q0.359375 0.40625 0.375 1.078125q0 0.59375 -0.34375 1.078125q-0.328125 0.484375 -0.9375 0.765625q-0.609375 0.265625 -1.390625 0.265625zm5.8479004 -6.421875l0 4.296875q0 0.53125 0.21875 0.75q0.234375 0.21875 0.796875 0.21875l0.890625 0l0 1.03125l-1.09375 0q-1.0 0 -1.515625 -0.46875q-0.5 -0.46875 -0.5 -1.53125l0 -4.296875l-0.953125 0l0 -1.0l0.953125 0l0 -1.84375l1.203125 0l0 1.84375l1.90625 0l0 1.0l-1.90625 0z" fill-rule="nonzero"/><path fill="#bee3d9" d="m754.7751 324.51868q0.375 -0.65625 1.09375 -1.0625q0.71875 -0.421875 1.640625 -0.421875q0.984375 0 1.765625 0.46875q0.796875 0.46875 1.25 1.3125q0.453125 0.84375 0.453125 1.96875q0 1.09375 -0.453125 1.96875q-0.453125 0.859375 -1.25 1.34375q-0.796875 0.484375 -1.765625 0.484375q-0.9375 0 -1.65625 -0.40625q-0.71875 -0.421875 -1.078125 -1.0625l0 1.34375l-1.203125 0l0 -9.859375l1.203125 0l0 3.921875zm4.96875 2.265625q0 -0.828125 -0.34375 -1.4375q-0.328125 -0.625 -0.90625 -0.9375q-0.5625 -0.328125 -1.234375 -0.328125q-0.671875 0 -1.234375 0.328125q-0.5625 0.328125 -0.90625 0.953125q-0.34375 0.609375 -0.34375 1.421875q0 0.828125 0.34375 1.453125q0.34375 0.625 0.90625 0.953125q0.5625 0.3125 1.234375 0.3125q0.671875 0 1.234375 -0.3125q0.578125 -0.328125 0.90625 -0.953125q0.34375 -0.625 0.34375 -1.453125zm6.0253906 3.796875q-1.03125 0 -1.875 -0.46875q-0.828125 -0.46875 -1.296875 -1.328125q-0.46875 -0.859375 -0.46875 -2.0q0 -1.109375 0.484375 -1.96875q0.484375 -0.859375 1.3125 -1.3125q0.84375 -0.46875 1.890625 -0.46875q1.03125 0 1.875 0.46875q0.84375 0.453125 1.328125 1.3125q0.484375 0.84375 0.484375 1.96875q0 1.140625 -0.5 2.0q-0.5 0.859375 -1.359375 1.328125q-0.84375 0.46875 -1.875 0.46875zm0 -1.078125q0.640625 0 1.21875 -0.296875q0.578125 -0.3125 0.921875 -0.921875q0.359375 -0.609375 0.359375 -1.5q0 -0.875 -0.34375 -1.484375q-0.34375 -0.609375 -0.90625 -0.90625q-0.5625 -0.3125 -1.21875 -0.3125q-0.671875 0 -1.21875 0.3125q-0.546875 0.296875 -0.890625 0.90625q-0.328125 0.609375 -0.328125 1.484375q0 0.90625 0.328125 1.515625q0.328125 0.609375 0.875 0.90625q0.546875 0.296875 1.203125 0.296875zm4.8893433 -2.71875q0 -1.125 0.453125 -1.96875q0.453125 -0.84375 1.234375 -1.3125q0.796875 -0.46875 1.78125 -0.46875q0.859375 0 1.59375 0.390625q0.734375 0.390625 1.109375 1.03125l0 -3.859375l1.234375 0l0 9.859375l-1.234375 0l0 -1.375q-0.359375 0.65625 -1.0625 1.078125q-0.703125 0.421875 -1.65625 0.421875q-0.96875 0 -1.765625 -0.484375q-0.78125 -0.484375 -1.234375 -1.34375q-0.453125 -0.875 -0.453125 -1.96875zm6.171875 0q0 -0.8125 -0.328125 -1.421875q-0.328125 -0.625 -0.90625 -0.953125q-0.5625 -0.328125 -1.234375 -0.328125q-0.6875 0 -1.25 0.328125q-0.546875 0.3125 -0.890625 0.9375q-0.328125 0.609375 -0.328125 1.4375q0 0.828125 0.328125 1.453125q0.34375 0.625 0.890625 0.953125q0.5625 0.3125 1.25 0.3125q0.671875 0 1.234375 -0.3125q0.578125 -0.328125 0.90625 -0.953125q0.328125 -0.625 0.328125 -1.453125zm9.572266 -3.625l-4.390625 10.734375l-1.25 0l1.4375 -3.515625l-2.953125 -7.21875l1.34375 0l2.296875 5.90625l2.265625 -5.90625l1.25 0z" fill-rule="nonzero"/></g></svg>